<svg width="105" height="115" viewBox="0 0 105 115" fill="none" xmlns="http://www.w3.org/2000/svg">
<g clip-path="url(#clip0_70_1306)">
<mask id="mask0_70_1306" style="mask-type:luminance" maskUnits="userSpaceOnUse" x="-29" y="-31" width="163" height="163">
<path d="M134 -31H-29V132H134V-31Z" fill="white"/>
</mask>
<g mask="url(#mask0_70_1306)">
<path d="M4.78947 32.248C6.86374 37.2477 8.5345 42.1815 9.39518 47.5393C9.85028 50.3721 10.0925 53.1969 9.87702 56.0636C6.11735 50.757 4.4673 44.4186 4.43864 37.9647C4.43021 36.0466 4.60801 34.1541 4.78947 32.248Z" fill="white"/>
<path d="M99.6483 32.4728L99.7293 32.4644C99.7816 32.5322 99.7934 32.5393 99.8288 32.632C99.9349 32.9101 99.9359 33.3424 99.9813 33.6416C100.173 34.9065 100.317 36.1589 100.351 37.4389C100.452 41.2673 100.234 45.1949 99.0446 48.865C98.1973 51.4803 96.9331 53.8439 95.4677 56.1551L95.2286 56.4293L95.1349 56.3497C95.0365 55.1526 95.1971 53.9041 95.2403 52.7021C95.4911 45.6911 96.7236 38.8976 99.6483 32.4728Z" fill="white"/>
<path d="M52.5563 0.261719C54.1228 3.34598 55.515 6.40446 55.7062 9.91454C55.7534 10.783 55.763 11.6985 55.5667 12.5499C55.3027 13.6947 54.8921 14.6454 54.2798 15.6504C55.2441 16.4858 56.1901 17.293 57.4511 17.6254L57.585 17.6591C58.2855 17.8412 59.048 17.7923 59.7686 17.7958C59.0806 16.978 58.5542 15.9987 58.4716 14.9129C58.3911 13.8547 58.6594 13.0284 59.3535 12.2195C59.9972 11.4689 60.9163 10.9333 61.9156 10.8701C63.2128 10.788 64.2344 11.0912 65.2047 11.9726C66.1332 12.8161 66.6858 13.89 66.7208 15.1625C66.7494 16.1961 66.3491 17.4062 65.6259 18.1471C64.4698 19.3318 63.17 19.4024 61.6226 19.4808L58.7159 19.56L61.1366 20.7103C64.551 22.1228 68.3062 22.4224 71.7612 20.9645C73.4402 20.2558 75.0581 19.1185 75.737 17.3587C76.1299 16.3401 76.0339 15.3012 75.6065 14.324C76.2637 13.7293 77.3241 12.6077 78.222 12.4854C79.6928 12.285 81.4051 13.0612 82.5456 13.9483C82.8175 14.1597 83.3985 14.5642 83.566 14.8461C83.6042 14.9107 83.5956 15.173 83.5943 15.2448L83.565 20.529C83.9677 29.9748 86.2021 39.5218 89.1454 48.4709C90.7542 53.3626 93.0276 57.8916 93.7027 63.0626C94.3221 62.1705 94.7845 61.1752 95.291 60.2172L96.7223 57.7614C98.2226 55.3381 100.098 53.0683 101.874 50.8423C102.724 49.7777 103.519 48.6528 104.44 47.6493L102.95 54.7391C101.628 59.0418 99.3728 63.5901 95.7972 66.4688C95.0428 67.0761 94.2401 67.5327 93.3881 67.9866L92.2268 72.2834L102.016 63.4245L100.467 66.8767C98.6431 70.6351 96.3249 73.9444 93.1919 76.7235C91.7454 78.0065 89.9314 78.8615 88.6611 80.3141C89.9634 79.9152 91.2325 79.4585 92.4686 78.8828C93.4123 78.4433 94.3295 77.9134 95.3037 77.5498C95.1215 77.9573 94.6738 78.4059 94.3848 78.7639C92.3971 81.2258 89.9478 83.5471 87.1305 85.0243C85.9425 85.6471 84.4459 85.9988 83.3813 86.8048C82.683 87.3336 82.2168 88.163 81.6353 88.8115C80.7725 89.7739 79.6587 90.5745 78.582 91.2839C74.757 93.8038 70.3724 95.543 66.0172 96.9066L57.0442 99.2696C55.0059 99.7032 53.0195 100.358 50.9255 99.926L45.5164 98.7048C40.8122 97.542 36.221 96.1503 31.7601 94.2444C29.7169 93.3715 27.6928 92.4497 25.8829 91.1438C24.6084 90.2243 23.4538 89.1249 22.3918 87.9677C21.858 87.3863 21.3103 86.5976 20.6787 86.1307C20.2963 85.848 19.6149 85.8257 19.1572 85.6503C18.6512 85.4563 18.167 85.1955 17.6965 84.9283C16.2008 84.0783 14.6798 83.0516 13.3824 81.9125C11.8399 80.558 10.5222 79.0286 9.19339 77.4717C10.0211 77.7286 10.7974 78.1827 11.5691 78.5737C13.2017 79.4008 14.8874 80.2941 16.6371 80.8281C16.5286 80.6026 16.3622 80.2147 16.2022 80.0341C16.1082 79.928 15.8312 79.8181 15.6951 79.7381C14.6461 79.122 13.6756 78.4287 12.723 77.673C9.03071 74.7449 6.15242 70.9977 4.28142 66.679C3.85339 65.6911 3.42456 64.7077 3.13008 63.67L12.9091 73.0027C12.2482 71.2929 11.8913 69.5111 11.5621 67.7143C10.6324 67.3537 9.8855 66.9309 9.1329 66.275C7.79754 65.1109 6.73677 63.5406 5.82435 62.0325C5.34029 61.2323 4.82486 60.435 4.4016 59.6012C3.06625 56.9709 2.07774 54.1967 1.24125 51.3769C0.892489 50.2013 0.421316 48.9091 0.336792 47.6796C2.78513 50.5131 5.15596 53.4618 7.21001 56.5978L11.2403 63.3174C11.3535 62.5444 11.3759 61.7751 11.5457 61.0061C11.9138 59.3416 12.572 57.661 13.1364 56.0486L15.913 47.9535L18.3878 39.2412C19.8648 33.4938 21.0278 27.6427 21.4814 21.7169C21.6123 20.0091 21.5451 18.2982 21.6045 16.5891C21.6432 15.4737 22.0532 14.4418 22.9069 13.6901C23.659 13.0279 24.7736 12.6577 25.7723 12.7159C27.2678 12.803 28.2598 13.5273 29.2305 14.6025L28.9403 15.2846C28.6469 16.1736 28.7738 17.1572 29.1988 17.9786C30.0216 19.5693 31.9126 20.6019 33.5671 21.1052C37.8551 22.4093 42.0992 21.7266 46.0093 19.6463C44.1946 19.5877 41.6844 19.769 40.1242 18.7145C39.1526 18.0577 38.5598 17.0781 38.3505 15.9314C38.1596 14.8868 38.4056 13.6358 39.0135 12.7608C39.6973 11.7766 40.9474 11.0143 42.1293 10.8309C43.1111 10.6784 44.2351 11.0013 45.0303 11.5881C45.8907 12.2231 46.3773 13.1266 46.4994 14.182C46.653 15.5124 46.0099 16.8253 45.2041 17.8315L45.2686 17.8531C45.5634 17.887 45.9513 17.8227 46.2554 17.8041C46.8832 17.7656 47.5248 17.7104 48.1165 17.4807C49.0727 17.1095 49.9321 16.325 50.7114 15.6789C50.2738 14.8028 49.8522 13.9528 49.5857 13.0061C49.3278 12.0894 49.3051 11.1483 49.3333 10.2011C49.4389 6.66122 50.8399 3.31049 52.5563 0.261719Z" fill="white"/>
<path d="M47.1398 70.9945L47.4062 70.9756C47.5611 71.0912 47.5751 71.0886 47.6237 71.2731L47.4024 71.5037C47.0699 71.8495 46.8588 72.1696 46.628 72.5863L46.5691 72.5957C46.3343 72.5803 46.2945 72.5524 46.147 72.3874C46.1648 72.1728 46.1794 71.9472 46.2726 71.7498C46.4644 71.3439 46.7235 71.1367 47.1398 70.9945Z" fill="#181718"/>
<path d="M51.5699 32.6167L53.8053 32.6949C53.4277 33.1727 53.0186 33.5049 52.5018 33.8158C52.0172 33.9594 51.0292 34.0097 50.5531 33.826L50.5246 33.7489C50.4611 33.4745 50.6492 33.075 50.8243 32.8709C51.0034 32.6622 51.3135 32.6539 51.5699 32.6167Z" fill="#181718"/>
<path d="M44.4921 74.8286L47.4425 75.562C47.2016 75.6586 47.0007 75.7507 46.7902 75.9032C46.7391 76.4769 46.7714 77.2504 47.0351 77.7703C47.2779 78.2489 47.9176 78.3817 48.3864 78.5505C47.9232 78.593 47.2632 78.6464 46.8131 78.5217C46.5818 78.4576 46.4076 78.3197 46.2975 78.1052L46.2356 77.9766C46.0934 77.3494 46.1187 76.6689 46.2053 76.0347L46.2235 75.905C45.7061 75.7902 45.1858 75.6272 44.6597 75.5653C43.9583 75.939 44.1178 76.9642 43.8638 77.6225C43.6394 77.6434 43.5263 77.7088 43.3441 77.5603C43.3344 77.0629 43.3555 76.5813 43.4485 76.0904C43.5725 75.4348 43.9642 75.175 44.4921 74.8286Z" fill="#181718"/>
<path d="M45.366 73.6208C45.6506 73.5232 46.0473 73.7303 46.3322 73.8117C46.7315 73.9256 47.1444 74.0103 47.5527 74.0845L49.8838 74.3954C51.862 74.6136 53.987 74.4965 55.9696 74.3481L55.3224 74.6321L54.3164 74.9535C51.9522 75.5111 49.0386 75.2421 46.7088 74.6314C46.1926 74.4961 45.6337 74.3834 45.178 74.0984C45.154 73.8696 45.2465 73.8067 45.366 73.6208Z" fill="#181718"/>
<path d="M42.1665 13.1744C42.4521 13.1721 42.7703 13.2044 43.0344 13.3191C43.3844 13.4713 43.6127 13.7685 43.745 14.1189C43.971 14.7177 43.8577 15.5952 43.5651 16.157C43.2846 16.6953 42.9425 16.9097 42.3844 17.1067L41.8042 17.0325C41.391 16.9446 41.0948 16.6684 40.8985 16.3053C40.6043 15.7613 40.5454 15.1317 40.7482 14.5459C40.991 13.8452 41.5317 13.4823 42.1665 13.1744Z" fill="#181718"/>
<path d="M62.1285 13.255C62.4072 13.2432 62.6834 13.2343 62.9588 13.2884C63.3817 13.3715 63.7649 13.6563 63.9944 14.0207C64.279 14.4724 64.4607 15.2511 64.3094 15.7756C64.1278 16.4058 63.8029 16.7402 63.2569 17.0713C62.9274 17.1121 62.548 17.1245 62.2348 17.0023C61.7692 16.8205 61.4588 16.3604 61.2626 15.9195C61.0248 15.3851 60.9179 14.762 61.1373 14.2061C61.3374 13.699 61.6508 13.4788 62.1285 13.255Z" fill="#181718"/>
<path d="M55.7664 54.5985C55.9667 54.5597 55.9894 54.5463 56.1731 54.6281C56.2814 54.8164 56.275 54.9748 56.2645 55.1853C56.2035 56.41 55.7616 57.8103 55.5084 59.0229L54.2964 64.5291C54.1253 65.2263 53.9973 65.9781 53.7735 66.6564C53.6907 66.9069 53.5279 67.0696 53.3365 67.2404L53.058 67.2901L52.9386 67.1842C53.012 66.2091 53.309 65.2252 53.5247 64.2736L54.797 58.5955L55.3239 55.8242C55.3755 55.5571 55.415 55.0606 55.539 54.8373C55.5811 54.7612 55.7032 54.6649 55.7664 54.5985Z" fill="#181718"/>
<path d="M53.1667 42.501C53.2775 42.4816 53.4234 42.4458 53.5347 42.4589C53.752 42.4842 53.8586 42.632 53.9883 42.7864C54.0447 43.2654 53.9296 43.7402 53.8521 44.2122L53.3308 46.9751L52.3966 51.7733C52.0866 53.236 51.7051 54.6904 51.476 56.1688C51.4335 56.4348 51.4093 56.6935 51.2799 56.934C51.1316 56.6262 51.2064 55.8317 51.2073 55.4831C51.218 51.3371 51.862 47.246 52.7058 43.1966C52.7788 42.8472 52.8637 42.6973 53.1667 42.501Z" fill="#181718"/>
<path d="M50.645 35.1684L51.9174 35.145C51.3752 36.4329 51.1178 37.9539 50.8637 39.3241C49.7544 45.3115 49.4768 51.4444 50.231 57.491L51.7814 67.0184C51.7992 67.1115 51.7891 67.1672 51.7539 67.2539L51.1079 67.2947L50.8717 67.2856C50.5709 67.0781 50.4207 66.458 50.3098 66.1161C47.588 57.736 47.0511 48.3417 49.1658 39.7668C49.5502 38.2081 49.9152 36.6093 50.645 35.1684Z" fill="#181718"/>
<path d="M73.2441 22.9223L73.494 22.8887L80.947 52.0947C80.263 51.6002 79.614 51.0429 78.8972 50.5964C77.3672 49.6436 75.8154 49.2692 74.0415 49.0728C73.2464 49.0643 72.4248 49.0811 71.6405 49.2285C69.6296 49.6067 67.6281 50.5606 65.8109 51.4756L67.2203 46.9982L70.0827 36.6486L72.0048 28.3982L72.6346 25.0134C72.7231 24.4712 72.7526 23.8925 72.871 23.36C72.9355 23.0703 73.0093 23.0725 73.2441 22.9223Z" fill="#181718"/>
<path d="M31.5202 22.8428L31.5712 22.8571C31.6661 22.9004 31.7608 22.9666 31.8509 23.0196C32.0019 23.1084 32.0438 23.4524 32.0815 23.6271L36.4172 42.1433C37.1901 45.1267 37.8774 48.2429 39.0466 51.0957C37.1952 50.2398 35.3192 49.3965 33.2798 49.1186C32.7268 49.0431 32.1859 49.0665 31.6294 49.084C30.9879 49.1703 30.3318 49.2227 29.6992 49.3589C27.7133 49.7866 25.8358 50.4917 23.9095 51.1174C25.2411 47.8303 26.2143 44.418 27.0952 40.9853L28.584 34.7902C29.3315 31.3177 29.8013 27.6973 30.9162 24.3211C31.0753 23.8386 31.2113 23.2506 31.5202 22.8428Z" fill="#181718"/>
<path d="M78.4554 15.1222C78.5993 15.0896 78.7569 15.0853 78.9039 15.0809C79.7325 15.0552 80.4892 15.6647 81.0513 16.2037C80.9761 23.9117 82.1302 31.4366 83.9321 38.9196L86.2488 47.3959L88.5034 53.8249C89.6368 56.9168 91.0282 60.2989 91.2139 63.6171C91.4166 67.2361 89.9946 71.1657 88.6319 74.4698C86.4613 79.733 82.9468 84.6645 78.3304 88.0421C75.4609 90.1417 72.0716 91.7784 68.7855 93.1268C64.5327 94.8717 60.0185 96.1757 55.5241 97.1291C55.0814 97.2231 53.9391 97.5975 53.5301 97.3922C53.3975 97.3256 53.3734 97.2574 53.3317 97.1122C53.2499 96.8277 52.7714 91.3714 52.8422 91.1904C52.8516 91.1664 52.8876 91.1659 52.9102 91.1535C54.8294 90.0995 56.6965 88.8602 58.532 87.6655L67.9473 81.6925L78.6679 74.7245L85.2542 70.4657L87.3026 69.1687C87.8248 68.8575 88.3877 68.5778 88.884 68.2279C89.0489 68.1117 89.186 67.9984 89.2716 67.8107C89.3818 67.5692 89.3157 67.4201 89.2315 67.1861C89.0841 67.0502 88.9727 66.9446 88.7763 66.8887C88.3938 66.7799 88.2233 67.0143 87.967 67.2536C86.8155 68.3281 85.2043 69.1641 83.8767 70.0224L74.6268 75.9636L57.6137 86.8731C55.8826 87.9388 54.1916 89.224 52.3927 90.1556L15.9691 66.7741L15.57 67.7286C16.6952 68.6964 18.0803 69.5157 19.3227 70.3313L26.2078 74.8146L42.7865 85.5179L51.9561 91.2038L51.4357 97.1819L51.108 97.286C50.1637 97.6192 44.4686 95.9462 43.1117 95.5524C38.6261 94.2506 34.1466 92.4828 29.9762 90.3843C29.1319 89.9593 28.2394 89.5795 27.4661 89.0311C26.6026 88.4186 25.8468 87.6547 25.095 86.9134C22.1619 84.0205 19.5103 80.5976 17.5352 76.9739C14.8679 72.0804 13.0424 66.1435 14.3838 60.568C14.5988 59.6744 14.9772 58.7978 15.2867 57.933L16.7909 53.616L20.5359 41.5268C22.2874 34.8319 23.6589 27.9416 24.0355 21.0179L24.0993 16.3645C24.3378 15.9602 24.5788 15.5387 25.0259 15.333C25.3225 15.1966 25.9792 15.1867 26.2759 15.3225C26.2766 15.3228 26.4537 15.4094 26.465 15.4406C26.5539 15.6873 26.398 16.2265 26.4038 16.5214C26.4149 17.0813 26.5126 17.6565 26.6938 18.1855C27.358 20.1253 28.724 21.4383 30.5461 22.3135C29.981 23.335 29.7004 24.5143 29.4083 25.6381L28.1716 31.2214L25.1658 43.8784C24.667 45.6691 24.1477 47.4228 23.4731 49.1579C23.0951 50.1303 22.6705 51.1791 22.0499 52.0231L21.9732 52.1263C22.4693 52.88 22.9878 53.6101 23.646 54.2332C25.8557 56.3256 29.5227 57.6764 32.565 57.5704C35.5545 57.4663 38.4962 55.5992 40.4644 53.4338C40.8449 53.0153 41.1161 52.5958 41.0922 52.0169C40.9709 51.764 40.7938 51.6978 40.5501 51.5722L40.4471 51.5201C39.9546 50.4396 39.6405 49.247 39.296 48.1122L37.8615 43.2039L33.1089 23.4095C34.417 23.7394 35.7572 24.0439 37.1064 24.1321C41.2719 24.4048 44.9301 23.1086 48.5126 21.1076C49.1415 20.7563 49.7411 20.3519 50.3121 19.9128C50.6339 19.6652 50.9767 19.2972 51.3467 19.1382C51.6016 19.2159 51.7129 19.3192 51.8946 19.5105C52.0264 19.8547 52.0847 23.7526 51.9809 24.1092C51.9001 24.387 51.539 24.4842 51.4671 24.6843C51.4524 24.7252 51.4852 25.0148 51.4881 25.0765L51.5269 26.221C51.561 27.7442 51.6457 29.3846 51.4806 30.8976C51.1355 31.2158 50.9158 31.6373 50.5841 31.948C50.3126 32.2022 49.9265 32.2944 49.6402 32.5954C49.1994 33.0585 48.9032 33.9261 48.959 34.5737C48.9842 34.8634 49.1221 34.8303 49.3092 35.0012C49.5291 35.2021 49.193 35.7494 49.0969 36.0098C47.9736 39.0555 47.3464 42.4155 47.05 45.6395C46.5768 50.7849 46.8141 55.9789 47.806 61.0524L48.5302 64.3761C48.8128 65.529 49.1298 66.6853 49.2072 67.8745C48.9945 68.0283 48.7779 68.1864 48.5878 68.3678C48.3585 68.5869 47.6683 69.5111 47.3797 69.5639C46.7764 69.6741 45.579 69.2672 45.094 69.712C44.5813 70.182 44.8506 71.1861 44.2282 71.7132C43.865 72.0207 43.3257 72.025 42.955 72.3061C42.7052 72.4955 42.6272 72.8074 42.5861 73.1046C42.5293 73.517 42.8311 73.8277 43.0571 74.1435L42.8491 74.3505C42.5785 74.6309 42.2727 74.9447 42.0965 75.2941C41.6705 76.1385 41.7481 77.0875 41.7649 78.0025C42.0554 78.3185 42.5191 78.546 42.9048 78.729C44.103 79.2978 45.4552 79.6397 46.7579 79.8649C50.4512 80.5035 54.186 80.4746 57.8871 79.9284C59.4753 79.6941 61.469 79.3132 62.7822 78.3268C63.0111 78.155 63.1252 78.0363 63.1526 77.7462C63.1873 77.3787 63.3093 75.6309 63.081 75.3866C62.8249 75.1121 62.4621 74.9388 62.2332 74.6362C61.8642 74.1488 62.1929 73.6693 62.2058 73.1432C62.2229 72.4495 61.2694 72.3779 60.9335 71.8518C60.5615 71.2694 60.6035 70.2 60.158 69.7438C59.7182 69.2936 58.2867 69.5143 57.6831 69.5311L57.4035 69.1637C57.1909 68.9065 56.6535 68.4283 56.5701 68.1227C56.271 67.0285 56.6747 65.4502 56.8698 64.3486L57.4836 60.8535L58.3833 55.2274C58.5324 54.2149 58.7403 53.1576 58.7873 52.1352C58.8661 50.4224 58.5891 48.7189 58.3554 47.0274L57.1898 40.1185C56.9424 38.9637 56.6124 37.8294 56.2552 36.7041C56.0991 36.2128 55.8388 35.7268 55.7579 35.2187C55.9002 35.0818 56.0346 34.9431 56.0693 34.7411C56.2178 33.8766 55.7826 32.7977 55.0875 32.2684C54.7799 32.0343 54.4855 31.9531 54.2545 31.6164C54.0971 31.3867 53.9514 31.2748 53.7165 31.1266L53.626 31.0716L53.5932 25.2302C53.5894 24.6133 53.4059 24.5605 52.9837 24.1466L53.0304 20.4414C53.0356 20.2655 52.9941 19.7867 53.0568 19.6385C53.123 19.4815 53.3822 19.2257 53.4944 19.0834C53.8514 19.2323 54.1965 19.5506 54.5103 19.7798C55.1207 20.226 55.735 20.6553 56.3927 21.0299C58.766 22.382 61.3246 23.5968 64.0303 24.0794C66.6737 24.5509 69.2638 24.295 71.8338 23.5838L64.2204 52.3504C64.271 52.7313 64.391 53.0753 64.6059 53.397C65.2202 54.3169 66.2012 54.9691 67.1498 55.4983C68.4974 56.2501 69.9291 56.8381 71.4437 57.1575C74.0404 57.7052 76.9831 57.3844 79.2252 55.8848C79.9477 55.4015 80.4507 54.8357 81.0581 54.2262C81.4873 53.7956 82.0318 53.4911 82.1093 52.8287C82.1972 52.0793 81.7063 50.8439 81.4939 50.1074L80.4071 46.2226C79.763 43.7923 74.3458 22.6242 74.4913 22.3121C74.5485 22.1897 75.2848 21.7314 75.4284 21.622C76.7747 20.5971 78.0404 19.0395 78.3626 17.3375L78.3891 17.1916C78.492 16.6508 78.5978 16.0261 78.4757 15.4804L78.4304 15.2814L78.4554 15.1222Z" fill="#181718"/>
<path d="M18.2393 114.876C18.1485 114.876 18.0759 114.854 18.0215 114.808C17.9761 114.772 17.9534 114.727 17.9534 114.672C17.9534 114.536 18.0532 114.441 18.2528 114.387C18.5613 114.305 18.7835 114.21 18.9196 114.101C19.0557 113.992 19.1237 113.792 19.1237 113.502V107.31C19.1237 107.02 19.0601 106.816 18.9333 106.698C18.8153 106.571 18.5748 106.467 18.212 106.385C18.0215 106.34 17.9261 106.244 17.9261 106.099C17.9261 106.036 17.9534 105.986 18.0078 105.95C18.0713 105.913 18.1348 105.895 18.1983 105.895C18.407 105.895 18.6248 105.9 18.8516 105.909C19.0783 105.918 19.3051 105.931 19.5319 105.95C19.7588 105.959 19.9629 105.963 20.1443 105.963H23.9818C24.0726 105.963 24.1768 105.954 24.2948 105.936C24.4127 105.909 24.5125 105.895 24.5942 105.895C24.694 105.895 24.7666 105.913 24.8119 105.95C24.8664 105.986 24.8936 106.036 24.8936 106.099C24.9117 106.426 24.9299 106.752 24.948 107.079C24.9662 107.406 24.9753 107.687 24.9753 107.923C24.9753 108.013 24.9571 108.082 24.9208 108.127C24.8845 108.172 24.8436 108.195 24.7984 108.195C24.7349 108.195 24.6758 108.172 24.6214 108.127C24.567 108.082 24.5262 108.023 24.499 107.95C24.4083 107.66 24.3175 107.406 24.2268 107.188C24.1361 106.97 24.009 106.802 23.8457 106.684C23.6915 106.566 23.4511 106.507 23.1245 106.507H21.9134C21.7048 106.507 21.5324 106.576 21.3963 106.712C21.2692 106.848 21.2057 107.097 21.2057 107.46V109.27C21.2057 109.442 21.2376 109.574 21.3011 109.665C21.3737 109.746 21.4779 109.787 21.614 109.787C21.6322 109.787 21.6503 109.787 21.6685 109.787C21.6866 109.787 21.7138 109.783 21.7501 109.773C21.8681 109.746 22.0268 109.719 22.2264 109.692C22.4351 109.665 22.6664 109.651 22.9204 109.651C23.7731 109.651 24.449 109.869 24.948 110.304C25.4471 110.731 25.6965 111.334 25.6965 112.114C25.6965 112.631 25.6148 113.039 25.4515 113.339C25.2882 113.638 25.0977 113.865 24.8799 114.019C24.6623 114.173 24.4718 114.3 24.3085 114.4C24.0272 114.564 23.7096 114.681 23.3559 114.754C23.0021 114.827 22.5938 114.863 22.1312 114.863C22.0768 114.863 21.9814 114.858 21.8453 114.849C21.7092 114.84 21.5051 114.827 21.2329 114.808C20.9698 114.799 20.5934 114.795 20.1036 114.795C19.9221 114.795 19.7225 114.799 19.5047 114.808C19.287 114.827 19.0692 114.84 18.8516 114.849C18.6339 114.867 18.4296 114.876 18.2393 114.876ZM21.9407 114.074C22.1947 114.074 22.4351 113.992 22.6619 113.829C22.8886 113.665 23.0747 113.443 23.2198 113.162C23.3741 112.872 23.4511 112.54 23.4511 112.168C23.4511 111.842 23.4104 111.574 23.3287 111.366C23.247 111.148 23.1472 110.975 23.0293 110.849C22.9204 110.712 22.8206 110.613 22.7299 110.549C22.6482 110.495 22.5212 110.431 22.3488 110.359C22.1856 110.286 21.9814 110.25 21.7364 110.25C21.5731 110.25 21.4416 110.286 21.3418 110.359C21.2511 110.422 21.2057 110.535 21.2057 110.699V113.216C21.2057 113.498 21.2692 113.711 21.3963 113.856C21.5324 114.001 21.7138 114.074 21.9407 114.074ZM26.2189 114.876C26.1193 114.876 26.033 114.858 25.9604 114.822C25.8969 114.795 25.8652 114.741 25.8652 114.659C25.8652 114.568 25.8925 114.505 25.9469 114.468C26.0104 114.423 26.0921 114.387 26.1919 114.359C26.4548 114.287 26.6817 114.173 26.8722 114.019C27.0718 113.865 27.2214 113.674 27.3212 113.448C27.5481 112.94 27.7612 112.441 27.9608 111.951C28.1604 111.452 28.3554 110.962 28.546 110.481C28.7365 109.991 28.9271 109.497 29.1176 108.998C29.3081 108.49 29.4985 107.977 29.689 107.46C29.8251 107.088 29.9114 106.821 29.9477 106.657C29.984 106.485 30.0112 106.385 30.0294 106.358C30.1925 106.312 30.3468 106.272 30.4919 106.235C30.6371 106.199 30.7914 106.149 30.9547 106.086C31.118 106.022 31.2541 105.94 31.363 105.841C31.4808 105.741 31.567 105.664 31.6215 105.609C31.6578 105.582 31.6941 105.569 31.7304 105.569C31.7667 105.56 31.803 105.587 31.8392 105.65C31.8665 105.705 31.8891 105.764 31.9072 105.827C31.9344 105.882 31.9572 105.945 31.9753 106.018C32.1657 106.625 32.3609 107.247 32.5605 107.882C32.7599 108.508 32.9596 109.134 33.1592 109.76C33.3678 110.386 33.5719 111.007 33.7715 111.624C33.9711 112.232 34.1661 112.826 34.3567 113.407C34.4111 113.588 34.4928 113.742 34.6016 113.869C34.7196 113.997 34.8511 114.096 34.9963 114.169C35.1414 114.241 35.3047 114.305 35.4862 114.359C35.586 114.387 35.6631 114.423 35.7175 114.468C35.781 114.505 35.8128 114.564 35.8128 114.645C35.8128 114.709 35.7856 114.759 35.7312 114.795C35.6767 114.831 35.6132 114.849 35.5407 114.849C35.3592 114.849 35.1324 114.84 34.8602 114.822C34.5972 114.813 34.3295 114.804 34.0573 114.795C33.7852 114.786 33.5447 114.781 33.3362 114.781C33.1638 114.781 32.9505 114.786 32.6966 114.795C32.4516 114.804 32.202 114.813 31.9481 114.822C31.6941 114.831 31.4763 114.836 31.2949 114.836C31.2132 114.836 31.1406 114.822 31.0771 114.795C31.0227 114.759 30.9954 114.709 30.9954 114.645C30.9954 114.564 31.0273 114.5 31.0908 114.455C31.1543 114.409 31.2313 114.378 31.3221 114.359C31.6578 114.287 31.9028 114.192 32.057 114.074C32.2111 113.956 32.2611 113.779 32.2066 113.543C32.1703 113.371 32.125 113.189 32.0705 112.999C32.0161 112.808 31.9617 112.618 31.9072 112.427C31.8619 112.227 31.812 112.037 31.7576 111.856C31.7394 111.783 31.7167 111.729 31.6895 111.692C31.6622 111.656 31.6078 111.638 31.5261 111.638H29.1176C29.0541 111.638 29.0041 111.656 28.9678 111.692C28.9315 111.729 28.9043 111.787 28.8861 111.869C28.8499 111.996 28.8091 112.123 28.7637 112.25C28.7184 112.377 28.673 112.504 28.6276 112.631C28.5913 112.758 28.555 112.885 28.5188 113.012C28.4825 113.139 28.4462 113.262 28.4099 113.38C28.3464 113.652 28.3736 113.86 28.4915 114.006C28.6095 114.151 28.8635 114.269 29.2537 114.359C29.4713 114.405 29.5802 114.5 29.5802 114.645C29.5802 114.709 29.5529 114.759 29.4985 114.795C29.4533 114.822 29.3761 114.836 29.2672 114.836C29.0041 114.836 28.7593 114.827 28.5324 114.808C28.3056 114.799 28.0562 114.795 27.784 114.795C27.5118 114.795 27.2533 114.808 27.0083 114.836C26.7633 114.863 26.5002 114.876 26.2189 114.876ZM29.4985 110.903H31.2676C31.4037 110.903 31.4717 110.871 31.4717 110.808C31.4717 110.78 31.4672 110.758 31.4582 110.74C31.4582 110.722 31.4536 110.699 31.4445 110.672L30.5329 107.596C30.5056 107.496 30.4784 107.446 30.4512 107.446C30.4331 107.446 30.4012 107.496 30.3559 107.596L29.2809 110.672C29.2628 110.708 29.2537 110.744 29.2537 110.78C29.2537 110.826 29.2763 110.858 29.3217 110.876C29.3761 110.894 29.4352 110.903 29.4985 110.903ZM40.9195 114.999C40.2118 114.999 39.5496 114.895 38.9326 114.686C38.3158 114.468 37.7714 114.164 37.2997 113.774C36.8279 113.375 36.4606 112.899 36.1974 112.345C35.9343 111.792 35.8028 111.18 35.8028 110.508C35.8028 109.882 35.9252 109.288 36.1702 108.726C36.4243 108.154 36.7916 107.65 37.2725 107.215C37.7533 106.771 38.3293 106.421 39.0007 106.167C39.6811 105.904 40.4477 105.773 41.3006 105.773C41.5908 105.773 41.8811 105.795 42.1714 105.841C42.4709 105.877 42.7566 105.931 43.0288 106.004C43.3101 106.077 43.5639 106.154 43.7908 106.235C43.8724 106.272 43.9406 106.322 43.995 106.385C44.0585 106.439 44.0946 106.521 44.1037 106.63C44.14 106.929 44.1672 107.22 44.1854 107.501C44.2035 107.782 44.2126 108.036 44.2126 108.263C44.2126 108.363 44.1763 108.431 44.1037 108.467C44.0313 108.503 43.9496 108.508 43.8589 108.481C43.7772 108.444 43.7182 108.372 43.6819 108.263C43.6184 108.054 43.5413 107.846 43.4506 107.637C43.3689 107.428 43.2419 107.247 43.0695 107.093C42.8881 106.911 42.6342 106.761 42.3075 106.644C41.99 106.526 41.6044 106.467 41.1508 106.467C40.6882 106.467 40.2662 106.566 39.8853 106.766C39.5133 106.966 39.1913 107.238 38.9191 107.583C38.656 107.927 38.4519 108.317 38.3067 108.753C38.1615 109.188 38.089 109.642 38.089 110.114C38.089 110.712 38.1525 111.27 38.2795 111.787C38.4065 112.296 38.6015 112.735 38.8646 113.108C39.1278 113.48 39.4498 113.77 39.8309 113.978C40.2118 114.187 40.661 114.291 41.178 114.291C41.8494 114.291 42.3937 114.151 42.811 113.869C43.2284 113.579 43.5776 113.139 43.8589 112.55C43.9315 112.386 44.0313 112.309 44.1582 112.318C44.2943 112.327 44.3624 112.404 44.3624 112.55C44.3624 112.668 44.3487 112.813 44.3215 112.985C44.3033 113.148 44.2717 113.325 44.2263 113.516C44.1809 113.706 44.1265 113.901 44.063 114.101C44.0267 114.21 43.9769 114.296 43.9133 114.359C43.8589 114.414 43.7863 114.464 43.6956 114.509C43.3508 114.654 42.9425 114.772 42.4709 114.863C41.999 114.954 41.4819 114.999 40.9195 114.999ZM47.8594 114.849C47.7959 114.849 47.7279 114.836 47.6553 114.808C47.5828 114.772 47.5465 114.722 47.5465 114.659C47.5465 114.577 47.5781 114.514 47.6416 114.468C47.7052 114.423 47.7824 114.391 47.8731 114.373C48.2177 114.3 48.4673 114.205 48.6216 114.087C48.7849 113.969 48.8664 113.765 48.8664 113.475V107.855C48.8664 107.501 48.8575 107.242 48.8393 107.079C48.8212 106.907 48.7939 106.793 48.7577 106.739C48.7304 106.675 48.6941 106.634 48.6488 106.616C48.5671 106.571 48.4582 106.548 48.3221 106.548C48.1951 106.539 48.0909 106.535 48.0092 106.535H47.7098C47.4194 106.535 47.1428 106.607 46.8797 106.752C46.6256 106.889 46.4215 107.061 46.2673 107.27C46.2219 107.333 46.154 107.424 46.0632 107.542C45.9816 107.65 45.8908 107.75 45.791 107.841C45.7003 107.923 45.6096 107.964 45.5188 107.964C45.4462 107.964 45.3964 107.941 45.3692 107.895C45.342 107.841 45.3283 107.782 45.3283 107.719C45.3283 107.61 45.3555 107.496 45.41 107.378C45.5823 107.034 45.7094 106.739 45.791 106.494C45.8727 106.249 45.9271 105.968 45.9543 105.65C45.9725 105.514 46.0132 105.423 46.0768 105.378C46.1403 105.324 46.2129 105.296 46.2945 105.296C46.358 105.296 46.426 105.355 46.4986 105.473C46.5712 105.591 46.6484 105.686 46.73 105.759C46.8208 105.832 46.9704 105.886 47.1791 105.922C47.3968 105.959 47.5737 105.977 47.7098 105.977H52.8265C53.0533 105.977 53.2438 105.954 53.3981 105.909C53.5612 105.863 53.6838 105.818 53.7655 105.773C53.9106 105.691 54.024 105.6 54.1056 105.5C54.1963 105.401 54.3006 105.351 54.4186 105.351C54.473 105.351 54.5093 105.373 54.5274 105.419C54.5547 105.455 54.5684 105.51 54.5684 105.582C54.5684 105.618 54.5637 105.664 54.5547 105.718C54.5547 105.773 54.5502 105.822 54.5411 105.868C54.4958 106.04 54.4504 106.208 54.405 106.371C54.3597 106.526 54.3234 106.675 54.2962 106.821C54.2689 106.966 54.2552 107.115 54.2552 107.27V107.542C54.2552 107.687 54.2371 107.805 54.2008 107.895C54.1736 107.986 54.1147 108.032 54.024 108.032C53.9423 108.032 53.8743 107.991 53.8199 107.909C53.7654 107.818 53.7064 107.678 53.6429 107.487C53.5431 107.161 53.3934 106.92 53.1938 106.766C53.0033 106.612 52.7085 106.535 52.3093 106.535H51.6017C51.4475 106.535 51.3205 106.571 51.2206 106.644C51.1299 106.707 51.0619 106.843 51.0166 107.052C50.9712 107.251 50.9484 107.56 50.9484 107.977V113.461C50.9484 113.733 51.021 113.933 51.1662 114.06C51.3204 114.178 51.5745 114.282 51.9284 114.373C52.0191 114.4 52.0961 114.432 52.1596 114.468C52.2232 114.505 52.2548 114.564 52.2548 114.645C52.2548 114.709 52.2276 114.759 52.1732 114.795C52.1187 114.831 52.0508 114.849 51.9691 114.849C51.7695 114.849 51.5427 114.84 51.2888 114.822C51.0438 114.813 50.7944 114.804 50.5403 114.795C50.2953 114.786 50.0822 114.781 49.9007 114.781C49.7102 114.781 49.4924 114.786 49.2475 114.795C49.0116 114.804 48.7712 114.813 48.5262 114.822C48.2903 114.84 48.0681 114.849 47.8594 114.849ZM55.0488 114.849C54.9854 114.849 54.9219 114.836 54.8584 114.808C54.8039 114.772 54.7767 114.722 54.7767 114.659C54.7767 114.514 54.8719 114.418 55.0625 114.373C55.4072 114.3 55.6385 114.21 55.7565 114.101C55.8835 113.983 55.947 113.779 55.947 113.489V107.31C55.947 107.011 55.8926 106.802 55.7837 106.684C55.6748 106.566 55.4435 106.467 55.0897 106.385C54.8901 106.34 54.7902 106.244 54.7902 106.099C54.7902 106.036 54.8175 105.986 54.8719 105.95C54.9354 105.913 54.9989 105.895 55.0625 105.895C55.2711 105.895 55.4889 105.9 55.7156 105.909C55.9515 105.918 56.1783 105.931 56.3961 105.95C56.6138 105.959 56.8134 105.963 56.9947 105.963C57.1762 105.963 57.3804 105.959 57.6073 105.95C57.843 105.94 58.0789 105.931 58.3148 105.922C58.5598 105.913 58.782 105.909 58.9816 105.909C59.0633 105.909 59.1222 105.927 59.1585 105.963C59.2038 105.99 59.2266 106.036 59.2266 106.099C59.2266 106.19 59.1994 106.254 59.1449 106.29C59.0996 106.326 59.0314 106.358 58.9407 106.385C58.5689 106.485 58.3239 106.598 58.2059 106.725C58.097 106.852 58.0426 107.052 58.0426 107.324V111.937C58.0426 112.064 58.0563 112.132 58.0835 112.141C58.1107 112.15 58.1652 112.114 58.2468 112.032L62.1795 107.705C62.2703 107.614 62.3156 107.515 62.3156 107.406V107.27C62.3066 106.997 62.2384 106.802 62.1116 106.684C61.9936 106.566 61.7622 106.467 61.4175 106.385C61.2179 106.34 61.1181 106.244 61.1181 106.099C61.1181 106.036 61.1453 105.986 61.1998 105.95C61.2633 105.913 61.3268 105.895 61.3903 105.895C61.5988 105.895 61.8166 105.9 62.0434 105.909C62.2793 105.918 62.5106 105.931 62.7375 105.95C62.9643 105.959 63.1684 105.963 63.3498 105.963C63.5313 105.963 63.7309 105.959 63.9487 105.95C64.1753 105.94 64.4068 105.931 64.6427 105.922C64.8875 105.913 65.1099 105.909 65.3095 105.909C65.3911 105.909 65.45 105.927 65.4863 105.963C65.5317 105.99 65.5543 106.036 65.5543 106.099C65.5543 106.19 65.5271 106.254 65.4726 106.29C65.4274 106.326 65.3593 106.358 65.2686 106.385C64.8966 106.485 64.6608 106.598 64.561 106.725C64.4612 106.852 64.4112 107.052 64.4112 107.324V113.475C64.4112 113.738 64.4657 113.933 64.5745 114.06C64.6834 114.178 64.9147 114.282 65.2686 114.373C65.3684 114.4 65.441 114.432 65.4863 114.468C65.5408 114.505 65.568 114.564 65.568 114.645C65.568 114.709 65.5452 114.759 65.4999 114.795C65.4545 114.831 65.3911 114.849 65.3095 114.849C65.1099 114.849 64.8875 114.84 64.6427 114.822C64.4068 114.813 64.1709 114.804 63.935 114.795C63.7081 114.786 63.5041 114.781 63.3226 114.781C63.1411 114.781 62.9415 114.786 62.7239 114.795C62.5062 114.804 62.2793 114.813 62.0434 114.822C61.8166 114.84 61.5988 114.849 61.3903 114.849C61.3268 114.849 61.2633 114.836 61.1998 114.808C61.1453 114.772 61.1181 114.722 61.1181 114.659C61.1181 114.514 61.2133 114.418 61.4039 114.373C61.7396 114.3 61.9755 114.21 62.1116 114.101C62.2475 113.992 62.3156 113.797 62.3156 113.516V108.821C62.3156 108.703 62.2747 108.68 62.1931 108.753L58.2196 113.135C58.1561 113.198 58.1107 113.257 58.0835 113.312C58.0563 113.357 58.0426 113.42 58.0426 113.502C58.0426 113.765 58.1107 113.956 58.2468 114.074C58.3828 114.182 58.6233 114.282 58.9679 114.373C59.0587 114.4 59.1268 114.432 59.1721 114.468C59.2266 114.505 59.2538 114.564 59.2538 114.645C59.2538 114.709 59.231 114.759 59.1857 114.795C59.1494 114.831 59.0905 114.849 59.0088 114.849C58.8092 114.849 58.587 114.84 58.342 114.822C58.097 114.813 57.8567 114.804 57.6208 114.795C57.3849 114.786 57.1762 114.781 56.9947 114.781C56.8134 114.781 56.6092 114.786 56.3824 114.795C56.1648 114.804 55.9379 114.813 55.702 114.822C55.4752 114.84 55.2574 114.849 55.0488 114.849ZM70.8773 114.999C70.2512 114.999 69.6524 114.895 69.0809 114.686C68.5184 114.468 68.0149 114.164 67.5705 113.774C67.135 113.375 66.7902 112.903 66.5361 112.359C66.2913 111.806 66.1687 111.193 66.1687 110.522C66.1687 109.905 66.2685 109.315 66.4681 108.753C66.6768 108.181 66.9852 107.673 67.3935 107.229C67.8018 106.784 68.3052 106.43 68.9041 106.167C69.5118 105.904 70.2105 105.773 70.9997 105.773C71.6346 105.773 72.2335 105.882 72.796 106.099C73.3675 106.308 73.871 106.612 74.3065 107.011C74.742 107.401 75.0866 107.873 75.3407 108.426C75.5947 108.971 75.7217 109.578 75.7217 110.25C75.7217 110.858 75.6173 111.447 75.4088 112.019C75.2001 112.59 74.8916 113.098 74.4833 113.543C74.0752 113.987 73.5671 114.341 72.9592 114.604C72.3605 114.867 71.6665 114.999 70.8773 114.999ZM71.1221 114.373C71.6393 114.373 72.0702 114.228 72.4149 113.938C72.7688 113.647 73.0318 113.244 73.2042 112.726C73.3765 112.209 73.4628 111.615 73.4628 110.944C73.4628 110.39 73.4084 109.846 73.2995 109.311C73.1997 108.767 73.0364 108.277 72.8095 107.841C72.5918 107.406 72.3105 107.061 71.9659 106.807C71.6211 106.544 71.2128 106.412 70.7412 106.412C70.2331 106.412 69.8022 106.557 69.4483 106.848C69.1035 107.138 68.845 107.537 68.6726 108.045C68.5002 108.553 68.4141 109.143 68.4141 109.814C68.4141 110.377 68.4686 110.93 68.5774 111.474C68.6863 112.01 68.8496 112.495 69.0672 112.93C69.285 113.366 69.5618 113.715 69.8974 113.978C70.2421 114.241 70.6504 114.373 71.1221 114.373ZM76.6439 114.849C76.5804 114.849 76.5168 114.836 76.4533 114.808C76.3989 114.772 76.3717 114.722 76.3717 114.659C76.3717 114.514 76.467 114.418 76.6576 114.373C76.975 114.3 77.1883 114.21 77.2971 114.101C77.4149 113.983 77.474 113.779 77.474 113.489V107.31C77.474 107.011 77.4196 106.802 77.3107 106.684C77.2109 106.566 77.0022 106.467 76.6848 106.385C76.4852 106.34 76.3854 106.244 76.3854 106.099C76.3854 106.036 76.4126 105.986 76.467 105.95C76.5305 105.913 76.594 105.895 76.6576 105.895C76.8661 105.895 77.0794 105.9 77.2971 105.909C77.5147 105.918 77.728 105.931 77.9367 105.95C78.1453 105.959 78.3404 105.963 78.5219 105.963C78.7032 105.963 78.9074 105.959 79.1342 105.95C79.37 105.94 79.6059 105.931 79.8418 105.922C80.0868 105.913 80.309 105.909 80.5086 105.909C80.6719 105.909 80.7536 105.977 80.7536 106.113C80.7536 106.194 80.7263 106.254 80.6719 106.29C80.6265 106.326 80.5586 106.358 80.4678 106.385C80.1049 106.485 79.8646 106.598 79.7466 106.725C79.6287 106.852 79.5696 107.052 79.5696 107.324V109.773C79.5696 109.846 79.5877 109.896 79.624 109.923C79.6694 109.95 79.7238 109.964 79.7873 109.964H83.3799C83.4978 109.964 83.5569 109.901 83.5569 109.773V107.324C83.5569 107.052 83.4978 106.852 83.3799 106.725C83.271 106.598 83.0353 106.485 82.6723 106.385C82.5725 106.358 82.4955 106.326 82.441 106.29C82.3957 106.254 82.3729 106.194 82.3729 106.113C82.3729 105.977 82.4592 105.909 82.6314 105.909C82.831 105.909 83.0534 105.913 83.2982 105.922C83.5432 105.931 83.7837 105.94 84.0195 105.95C84.2554 105.959 84.4641 105.963 84.6455 105.963C84.8179 105.963 85.0038 105.959 85.2034 105.95C85.4121 105.931 85.6208 105.918 85.8295 105.909C86.0471 105.9 86.2604 105.895 86.4691 105.895C86.5415 105.895 86.605 105.913 86.6595 105.95C86.7139 105.986 86.7411 106.036 86.7411 106.099C86.7411 106.244 86.6459 106.34 86.4554 106.385C86.1288 106.467 85.911 106.571 85.8023 106.698C85.7025 106.816 85.6525 107.02 85.6525 107.31V113.475C85.6525 113.774 85.7069 113.983 85.8158 114.101C85.9338 114.21 86.1469 114.3 86.4554 114.373C86.6459 114.418 86.7411 114.514 86.7411 114.659C86.7411 114.722 86.7139 114.772 86.6595 114.808C86.605 114.836 86.5461 114.849 86.4826 114.849C86.2921 114.849 86.088 114.84 85.8702 114.822C85.6525 114.813 85.4347 114.804 85.217 114.795C84.9994 114.786 84.7998 114.781 84.6183 114.781C84.4368 114.781 84.2281 114.786 83.9922 114.795C83.7656 114.804 83.5297 114.813 83.2847 114.822C83.0397 114.84 82.8175 114.849 82.6179 114.849C82.5453 114.849 82.4864 114.831 82.441 114.795C82.3957 114.759 82.3729 114.709 82.3729 114.645C82.3729 114.554 82.3957 114.496 82.441 114.468C82.4955 114.432 82.5681 114.4 82.6586 114.373C83.0034 114.282 83.2393 114.178 83.3663 114.06C83.4934 113.933 83.5569 113.738 83.5569 113.475V110.93C83.5569 110.858 83.5432 110.803 83.516 110.767C83.4978 110.722 83.4571 110.699 83.3936 110.699H79.7601C79.6331 110.699 79.5696 110.771 79.5696 110.917V113.461C79.5696 113.715 79.6377 113.91 79.7738 114.046C79.9099 114.173 80.1503 114.282 80.4951 114.373C80.5858 114.4 80.6538 114.432 80.6991 114.468C80.7536 114.496 80.7808 114.554 80.7808 114.645C80.7808 114.709 80.758 114.759 80.7127 114.795C80.6764 114.831 80.6175 114.849 80.5358 114.849C80.3362 114.849 80.114 114.84 79.869 114.822C79.624 114.813 79.3837 114.804 79.1478 114.795C78.9119 114.786 78.7032 114.781 78.5219 114.781C78.3404 114.781 78.1362 114.786 77.9095 114.795C77.6917 114.804 77.4694 114.813 77.2427 114.822C77.025 114.84 76.8253 114.849 76.6439 114.849Z" fill="white"/>
</g>
</g>
<defs>
<clipPath id="clip0_70_1306">
<rect width="105" height="115" fill="white"/>
</clipPath>
</defs>
</svg>
