<svg width="86" height="98" viewBox="0 0 86 98" fill="none" xmlns="http://www.w3.org/2000/svg">
<path d="M73.195 73.1253C81.2037 65.1124 85.7027 54.2471 85.7027 42.9181C85.7027 31.5891 81.2037 20.7238 73.195 12.7109C69.2307 8.74392 64.5236 5.59698 59.3426 3.44992C54.1616 1.30286 48.6083 0.197754 43 0.197754C37.3918 0.197754 31.8385 1.30286 26.6575 3.44992C21.4765 5.59698 16.7693 8.74392 12.805 12.7109C4.79628 20.7238 0.297363 31.5891 0.297363 42.9181C0.297363 54.2471 4.79628 65.1124 12.805 73.1253L22.0831 82.2692L34.5454 94.3777L35.3567 95.0975C40.0842 98.9283 47.0077 98.6843 51.4607 94.3777L66.3142 79.9207L73.195 73.1253ZM43 61.1998C38.1465 61.1998 33.4919 59.2718 30.06 55.8398C26.628 52.4079 24.7 47.7533 24.7 42.8998C24.7 38.0463 26.628 33.3917 30.06 29.9597C33.4919 26.5278 38.1465 24.5998 43 24.5998C47.8535 24.5998 52.5082 26.5278 55.9401 29.9597C59.372 33.3917 61.3 38.0463 61.3 42.8998C61.3 47.7533 59.372 52.4079 55.9401 55.8398C52.5082 59.2718 47.8535 61.1998 43 61.1998Z" fill="#FF0000"/>
</svg>
