<svg width="50" height="50" viewBox="0 0 50 50" fill="currentColor" xmlns="http://www.w3.org/2000/svg">
<g clip-path="url(#clip0_70_1234)">
<path d="M45.6055 35.3516H39.7461C37.3229 35.3516 35.3516 37.3229 35.3516 39.7461V50H50V39.7461C50 37.3229 48.0287 35.3516 45.6055 35.3516ZM26.4648 29.2969H32.3242V32.2266H26.4648V29.2969ZM27.8918 37.5444L32.9657 34.6148L34.4309 37.1524L29.3568 40.0819L27.8918 37.5444ZM38.1836 13.1836C38.1836 5.91377 32.2698 0 25 0C17.7302 0 11.8164 5.91377 11.8164 13.1836C11.8164 17.5882 14.0408 21.7138 17.6758 24.1471V30.2024L25.3548 26.363C32.4615 26.174 38.1836 20.3348 38.1836 13.1836ZM26.4648 20.5078H23.5352V17.5781H26.4648V20.5078ZM26.4648 14.6484H23.5352V5.85938H26.4648V14.6484ZM18.2963 40.284L12.889 36.2299L12.8883 36.2309C12.1291 35.6592 11.2043 35.3506 10.2539 35.3516H4.39453C1.97129 35.3516 0 37.3229 0 39.7461V50H14.6484V41.2108L19.7896 45.0677L23.3616 34.3503L20.5836 33.4233L18.2963 40.284Z"/>
<path d="M42.6758 35.3516C45.9118 35.3516 48.5352 32.7282 48.5352 29.4922C48.5352 26.2561 45.9118 23.6328 42.6758 23.6328C39.4397 23.6328 36.8164 26.2561 36.8164 29.4922C36.8164 32.7282 39.4397 35.3516 42.6758 35.3516Z"/>
<path d="M7.32422 35.3516C10.5603 35.3516 13.1836 32.7282 13.1836 29.4922C13.1836 26.2561 10.5603 23.6328 7.32422 23.6328C4.08818 23.6328 1.46484 26.2561 1.46484 29.4922C1.46484 32.7282 4.08818 35.3516 7.32422 35.3516Z"/>
</g>
<defs>
<clipPath id="clip0_70_1234">
<rect width="50" height="50"/>
</clipPath>
</defs>
</svg>
