<svg width="52" height="52" viewBox="0 0 52 52" fill="currentColor" xmlns="http://www.w3.org/2000/svg">
<g clip-path="url(#clip0_70_1183)">
<g clip-path="url(#clip1_70_1183)" filter="url(#filter0_dddddd_70_1183)">
<path fill-rule="evenodd" clip-rule="evenodd" d="M25.4273 26.0156C25.5039 26.0189 25.5805 26.0189 25.657 26.0156L26.2936 32.3845L25.5426 33.461L24.7907 32.3845L25.4272 26.0156H25.4273ZM32.0155 38.5119C33.2321 38.5119 34.232 37.5533 34.2832 36.3378C34.3867 33.8874 34.4335 31.5031 34.2922 28.9379C34.1806 27.4859 33.8558 26.9403 32.9443 26.4059C32.0207 25.8644 30.1837 25.4734 28.886 25.1222L28.7001 25.0705C28.197 24.9304 27.7015 25.0357 27.299 25.3684C27.2095 25.4424 27.1157 25.5112 27.0181 25.5742L27.7108 32.5034C27.7273 32.6694 27.6841 32.8358 27.589 32.9728L26.115 35.0821C25.9841 35.2688 25.7704 35.3807 25.5427 35.3807C25.315 35.3807 25.1004 35.2688 24.9693 35.0821L23.4954 32.9728C23.4002 32.8358 23.357 32.6694 23.3735 32.5034L24.0663 25.5742C23.9687 25.5112 23.8749 25.4424 23.7854 25.3684C23.3828 25.0357 22.8872 24.9304 22.3842 25.0705L22.1983 25.1222C20.9007 25.4734 19.0637 25.8644 18.1401 26.4059C17.2286 26.9403 16.9037 27.4859 16.7921 28.9379C16.6509 31.5031 16.6977 33.8874 16.8011 36.3378C16.8524 37.5533 17.8523 38.5119 19.0689 38.5119H19.5103V32.5965C19.5103 32.4111 19.584 32.2333 19.7151 32.1022C19.8462 31.9711 20.024 31.8974 20.2094 31.8974C20.3948 31.8974 20.5727 31.9711 20.7038 32.1022C20.8349 32.2333 20.9085 32.4111 20.9085 32.5965V38.5119H30.1759V32.5965C30.1759 32.4111 30.2495 32.2333 30.3806 32.1022C30.5117 31.9711 30.6895 31.8974 30.875 31.8974C31.0604 31.8974 31.2382 31.9711 31.3693 32.1022C31.5004 32.2333 31.574 32.4111 31.574 32.5965V38.5119H32.0155ZM25.5422 15.9407C20.2958 15.9407 21.3918 24.1743 25.5422 24.4435C29.6925 24.1744 30.7886 15.9407 25.5422 15.9407ZM23.922 43.3425C23.9053 43.2311 23.8619 43.1254 23.7955 43.0344C23.7292 42.9434 23.6418 42.8698 23.5408 42.8199C23.4399 42.77 23.3283 42.7452 23.2157 42.7476C23.1031 42.7501 22.9928 42.7798 22.8941 42.8341L20.6515 43.8938C20.4867 43.9743 20.3602 44.1164 20.2994 44.2894C20.2386 44.4625 20.2484 44.6525 20.3266 44.8183C20.4049 44.9842 20.5453 45.1126 20.7176 45.1757C20.8898 45.2388 21.0799 45.2315 21.2468 45.1554L21.7154 44.934C21.2412 45.8573 20.6371 46.6394 19.9508 47.262L19.9493 47.2634L19.9481 47.262C19.0829 48.0469 18.0878 48.5795 17.061 48.8217C16.0494 49.0603 15.0054 49.017 14.0255 48.6545C13.2296 48.3601 12.4703 47.8524 11.798 47.1113C11.6728 46.9767 11.4996 46.8969 11.316 46.8893C11.1324 46.8816 10.9531 46.9467 10.8172 47.0704C10.6813 47.1941 10.5996 47.3664 10.59 47.55C10.5804 47.7335 10.6435 47.9134 10.7657 48.0507C11.5945 48.9644 12.5426 49.5946 13.5448 49.9654C14.788 50.4252 16.1061 50.4817 17.3778 50.1817C18.6344 49.8853 19.8441 49.2408 20.8875 48.2944L20.8863 48.293C21.6556 47.5948 22.3348 46.733 22.8749 45.7268L22.9339 46.1107C22.9632 46.2923 23.063 46.4551 23.2115 46.5636C23.3601 46.6722 23.5455 46.7177 23.7274 46.6904C23.9094 46.6631 24.0732 46.5651 24.1833 46.4177C24.2935 46.2703 24.341 46.0854 24.3157 45.9032L23.9222 43.3427L23.922 43.3425ZM39.2863 47.1112C38.6139 47.8524 37.8546 48.3601 37.0588 48.6544C36.0789 49.0169 35.0348 49.0602 34.0233 48.8216C32.9965 48.5794 32.0015 48.0469 31.1362 47.2619L31.135 47.2633L31.1335 47.2619C30.4472 46.6394 29.8431 45.8573 29.3689 44.9339L29.8375 45.1554C30.0048 45.2343 30.1966 45.2435 30.3707 45.181C30.5449 45.1185 30.687 44.9894 30.7659 44.8221C30.8449 44.6548 30.8541 44.463 30.7916 44.2889C30.7291 44.1148 30.6 43.9726 30.4327 43.8937L28.1901 42.834C28.0914 42.7796 27.981 42.75 27.8684 42.7475C27.7558 42.745 27.6443 42.7698 27.5433 42.8197C27.4424 42.8697 27.355 42.9433 27.2886 43.0343C27.2222 43.1253 27.1789 43.231 27.1622 43.3424L26.7686 45.9029C26.755 45.9936 26.7593 46.0861 26.7815 46.1752C26.8036 46.2642 26.8431 46.348 26.8976 46.4218C27.0077 46.5708 27.1725 46.67 27.3557 46.6975C27.539 46.7251 27.7256 46.6787 27.8747 46.5686C28.0237 46.4584 28.1229 46.2936 28.1504 46.1104L28.2094 45.7265C28.7495 46.7326 29.4286 47.5944 30.198 48.2927L30.1968 48.2941C31.2401 49.2405 32.4499 49.885 33.7065 50.1814C34.9782 50.4814 36.2963 50.4249 37.5395 49.9651C38.5417 49.5944 39.4897 48.9642 40.3186 48.0504C40.4408 47.9131 40.5039 47.7332 40.4943 47.5497C40.4846 47.3661 40.403 47.1938 40.2671 47.0701C40.1311 46.9464 39.9519 46.8813 39.7683 46.889C39.5847 46.8966 39.4115 46.9764 39.2863 47.111V47.1112ZM11.3346 10.6902H11.3971L14.5959 3.80786C14.6518 3.68681 14.7411 3.58428 14.8534 3.5124C14.9657 3.44053 15.0962 3.40232 15.2295 3.40229V3.40099H16.8516C17.1385 3.40099 17.3989 3.37862 17.643 3.33208C17.8907 3.28475 18.133 3.2123 18.366 3.11586L18.9587 2.87208C19.2694 2.74316 19.5922 2.64525 19.9222 2.57976C19.9312 2.57766 19.9402 2.57567 19.9494 2.57397C20.2901 2.50895 20.6366 2.47769 21.0029 2.47769H23.4962C23.6528 1.48878 24.5091 0.732666 25.5422 0.732666C26.5752 0.732666 27.4315 1.48878 27.5881 2.47769H30.0814C30.4478 2.47769 30.7943 2.50885 31.135 2.57397C31.4707 2.63799 31.7962 2.73656 32.1257 2.87208L32.7183 3.11586C32.9513 3.2123 33.1936 3.28475 33.4413 3.33208C33.6854 3.37862 33.9459 3.40099 34.2328 3.40099H35.8549V3.40229C35.9527 3.40229 36.0523 3.42276 36.147 3.46651C36.304 3.53891 36.4212 3.66225 36.4882 3.80786C36.5553 3.95347 39.6871 10.6902 39.6871 10.6902H39.7496C39.7496 12.8413 38.0058 14.5851 35.8547 14.5851C33.7036 14.5851 31.9597 12.8413 31.9597 10.6902H32.0223L34.7604 4.79907H34.2327C33.8663 4.79907 33.5198 4.76791 33.1792 4.7029C32.8435 4.63888 32.5179 4.54031 32.1884 4.40479L31.5958 4.161C31.3628 4.06456 31.1205 3.99211 30.8728 3.94479C30.6287 3.89815 30.3682 3.87588 30.0813 3.87588H27.3155C27.0687 4.28338 26.6895 4.59375 26.2412 4.75503V14.583C26.0092 14.5558 25.7757 14.5422 25.5421 14.5425C25.3007 14.5425 25.0677 14.5565 24.843 14.5829V4.75503C24.3947 4.59375 24.0155 4.28338 23.7687 3.87588H21.0029C20.716 3.87588 20.4556 3.89825 20.2114 3.94479C20.2035 3.9463 20.1955 3.94766 20.1876 3.94888C19.9481 3.99636 19.7139 4.06741 19.4884 4.161L18.8957 4.40479C18.5663 4.54031 18.2407 4.63888 17.905 4.7029C17.5643 4.76791 17.2178 4.79907 16.8515 4.79907H16.3237L19.0618 10.6902H19.1243C19.1243 12.8413 17.3805 14.5851 15.2294 14.5851C13.0783 14.5851 11.3346 12.8413 11.3346 10.6902ZM35.8548 5.75533L33.5611 10.6902H38.1485L35.8548 5.75533ZM12.9358 10.6902H17.5232L15.2295 5.75533L12.9358 10.6902ZM43.4699 35.365L44.0451 41.1174L42.7643 42.9507L41.4834 41.1174L42.0588 35.364C38.5894 35.6959 35.832 38.4659 35.5189 41.9407V44.3472H50.0001V41.9407C49.6873 38.4691 46.9347 35.701 43.4697 35.365H43.4699ZM42.7597 35.3073C44.6721 35.3073 46.2224 33.757 46.2224 31.8446C46.2224 29.9322 44.6721 28.3819 42.7597 28.3819C40.8473 28.3819 39.297 29.9322 39.297 31.8446C39.297 33.757 40.8473 35.3073 42.7597 35.3073ZM15.5653 41.9408C15.2525 38.4692 12.4999 35.7011 9.03488 35.3651L9.61023 41.1175L8.3295 42.9508L7.04867 41.1175L7.62402 35.3641C4.15463 35.696 1.39722 38.466 1.08423 41.9408V44.3473H15.5653V41.9408ZM8.3247 35.3073C10.2371 35.3073 11.7874 33.757 11.7874 31.8446C11.7874 29.9322 10.2371 28.3819 8.3247 28.3819C6.41229 28.3819 4.86201 29.9322 4.86201 31.8446C4.86201 33.757 6.41229 35.3073 8.3247 35.3073Z"/>
</g>
</g>
<defs>
<clipPath id="clip0_70_1183">
<rect width="52" height="52"/>
</clipPath>
<clipPath id="clip1_70_1183">
<rect width="50" height="50"/>
</clipPath>
</defs>
</svg>
