<svg width="50" height="50" viewBox="0 0 50 50" fill="currentColor" xmlns="http://www.w3.org/2000/svg">
<g clip-path="url(#clip0_70_1213)">
<path d="M16.0986 21.1993C16.5541 24.1601 18.842 27.9284 22.6 29.2535C24.1425 29.7918 25.83 29.8022 27.3725 29.2432C31.0683 27.9077 33.4287 24.1497 33.8946 21.1993C34.3915 21.1578 35.0437 20.4642 35.7477 17.9693C36.7105 14.5633 35.6856 14.056 34.8159 14.1388C34.9816 13.673 35.1058 13.1968 35.1886 12.7412C36.6587 3.91054 32.3106 3.61031 32.3106 3.61031C32.3106 3.61031 31.586 2.22308 29.6914 1.17747C28.4181 0.421736 26.6478 -0.158005 24.3185 0.0386925C23.5628 0.0697501 22.8484 0.225038 22.1755 0.442441C21.3163 0.732312 20.5295 1.15677 19.8151 1.65369C18.9455 2.20237 18.1173 2.88564 17.3926 3.66208C16.2435 4.84226 15.2186 6.36409 14.7735 8.2586C14.4008 9.67689 14.4836 11.1573 14.7942 12.7516C14.877 13.2175 15.0012 13.6833 15.1669 14.1492C14.2972 14.0664 13.2723 14.5736 14.2351 17.9796C14.9495 20.4642 15.6017 21.1578 16.0986 21.1993Z"/>
<path d="M42.0731 32.7838C36.783 31.438 32.4867 28.415 32.4867 28.415L29.1324 39.0264L28.5009 41.0244L28.4906 40.9934L27.9419 42.6912L26.1716 37.6702C30.5197 31.6036 25.2916 31.6657 25.0018 31.6761C24.7119 31.6657 19.4839 31.6036 23.8319 37.6702L22.0617 42.6912L21.513 40.9934L21.5026 41.0244L20.8711 39.0264L17.5066 28.415C17.5066 28.415 13.2103 31.438 7.92011 32.7838C3.9758 33.788 3.78946 38.3431 3.94474 40.5896C3.94474 40.5896 4.1725 43.6436 4.40025 44.9894C4.40025 44.9894 12.1025 49.9897 25.0018 50.0001C37.901 50.0001 45.6033 44.9894 45.6033 44.9894C45.8311 43.6436 46.0588 40.5896 46.0588 40.5896C46.2037 38.3431 46.0174 33.788 42.0731 32.7838Z"/>
</g>
<defs>
<clipPath id="clip0_70_1213">
<rect width="50" height="50"/>
</clipPath>
</defs>
</svg>
