<svg width="50" height="50" viewBox="0 0 50 50" fill="currentColor" xmlns="http://www.w3.org/2000/svg">
<path d="M39.0625 12.5H45.9531L37.5 4.04688V10.9375C37.5 11.3519 37.6646 11.7493 37.9576 12.0424C38.2507 12.3354 38.6481 12.5 39.0625 12.5Z"/>
<path d="M39.0625 15.625C37.8193 15.625 36.627 15.1311 35.7479 14.2521C34.8689 13.373 34.375 12.1807 34.375 10.9375V3.125H17.1875C15.9443 3.125 14.752 3.61886 13.8729 4.49794C12.9939 5.37701 12.5 6.5693 12.5 7.8125V19.0625C15.9778 18.3512 19.5941 18.8453 22.7536 20.4635C25.9131 22.0817 28.4274 24.7275 29.8826 27.9653C31.3378 31.2031 31.6471 34.8399 30.7597 38.277C29.8722 41.714 27.8408 44.7465 25 46.875H42.1875C43.4307 46.875 44.623 46.3811 45.5021 45.5021C46.3811 44.623 46.875 43.4307 46.875 42.1875V15.625H39.0625ZM29.6875 15.625H20.3125C19.8981 15.625 19.5007 15.4604 19.2076 15.1674C18.9146 14.8743 18.75 14.4769 18.75 14.0625C18.75 13.6481 18.9146 13.2507 19.2076 12.9576C19.5007 12.6646 19.8981 12.5 20.3125 12.5H29.6875C30.1019 12.5 30.4993 12.6646 30.7924 12.9576C31.0854 13.2507 31.25 13.6481 31.25 14.0625C31.25 14.4769 31.0854 14.8743 30.7924 15.1674C30.4993 15.4604 30.1019 15.625 29.6875 15.625ZM39.0625 39.0625H35.9375C35.5231 39.0625 35.1257 38.8979 34.8326 38.6049C34.5396 38.3118 34.375 37.9144 34.375 37.5C34.375 37.0856 34.5396 36.6882 34.8326 36.3951C35.1257 36.1021 35.5231 35.9375 35.9375 35.9375H39.0625C39.4769 35.9375 39.8743 36.1021 40.1674 36.3951C40.4604 36.6882 40.625 37.0856 40.625 37.5C40.625 37.9144 40.4604 38.3118 40.1674 38.6049C39.8743 38.8979 39.4769 39.0625 39.0625 39.0625ZM39.0625 31.25H35.9375C35.5231 31.25 35.1257 31.0854 34.8326 30.7924C34.5396 30.4993 34.375 30.1019 34.375 29.6875C34.375 29.2731 34.5396 28.8757 34.8326 28.5826C35.1257 28.2896 35.5231 28.125 35.9375 28.125H39.0625C39.4769 28.125 39.8743 28.2896 40.1674 28.5826C40.4604 28.8757 40.625 29.2731 40.625 29.6875C40.625 30.1019 40.4604 30.4993 40.1674 30.7924C39.8743 31.0854 39.4769 31.25 39.0625 31.25ZM39.0625 23.4375H32.8125C32.3981 23.4375 32.0007 23.2729 31.7076 22.9799C31.4146 22.6868 31.25 22.2894 31.25 21.875C31.25 21.4606 31.4146 21.0632 31.7076 20.7701C32.0007 20.4771 32.3981 20.3125 32.8125 20.3125H39.0625C39.4769 20.3125 39.8743 20.4771 40.1674 20.7701C40.4604 21.0632 40.625 21.4606 40.625 21.875C40.625 22.2894 40.4604 22.6868 40.1674 22.9799C39.8743 23.2729 39.4769 23.4375 39.0625 23.4375Z"/>
<path d="M15.625 21.875C13.1527 21.875 10.736 22.6081 8.68038 23.9816C6.62476 25.3551 5.02261 27.3074 4.07651 29.5915C3.13042 31.8755 2.88287 34.3889 3.36519 36.8136C3.8475 39.2384 5.03801 41.4657 6.78617 43.2138C8.53433 44.962 10.7616 46.1525 13.1864 46.6348C15.6111 47.1171 18.1245 46.8696 20.4085 45.9235C22.6926 44.9774 24.6449 43.3752 26.0184 41.3196C27.3919 39.264 28.125 36.8473 28.125 34.375C28.125 31.0598 26.808 27.8804 24.4638 25.5362C22.1196 23.192 18.9402 21.875 15.625 21.875ZM12.5 29.6875C12.809 29.6875 13.1111 29.7791 13.3681 29.9508C13.625 30.1225 13.8253 30.3665 13.9436 30.6521C14.0618 30.9376 14.0928 31.2517 14.0325 31.5548C13.9722 31.8579 13.8234 32.1363 13.6049 32.3549C13.3863 32.5734 13.1079 32.7222 12.8048 32.7825C12.5017 32.8428 12.1876 32.8118 11.9021 32.6936C11.6166 32.5753 11.3725 32.375 11.2008 32.1181C11.0291 31.8611 10.9375 31.559 10.9375 31.25C10.9375 30.8356 11.1021 30.4382 11.3952 30.1451C11.6882 29.8521 12.0856 29.6875 12.5 29.6875ZM18.75 39.0625C18.441 39.0625 18.1389 38.9709 17.8819 38.7992C17.625 38.6275 17.4247 38.3835 17.3064 38.0979C17.1882 37.8124 17.1572 37.4983 17.2175 37.1952C17.2778 36.8921 17.4266 36.6137 17.6452 36.3951C17.8637 36.1766 18.1421 36.0278 18.4452 35.9675C18.7483 35.9072 19.0624 35.9382 19.3479 36.0564C19.6335 36.1747 19.8775 36.375 20.0492 36.6319C20.2209 36.8889 20.3125 37.191 20.3125 37.5C20.3125 37.9144 20.1479 38.3118 19.8549 38.6049C19.5618 38.8979 19.1644 39.0625 18.75 39.0625ZM19.8594 32.3594L13.6094 38.6094C13.4641 38.7558 13.2913 38.8721 13.1009 38.9514C12.9105 39.0307 12.7063 39.0716 12.5 39.0716C12.2937 39.0716 12.0895 39.0307 11.8991 38.9514C11.7087 38.8721 11.5359 38.7558 11.3906 38.6094C11.2442 38.4641 11.1279 38.2913 11.0486 38.1009C10.9693 37.9105 10.9284 37.7063 10.9284 37.5C10.9284 37.2937 10.9693 37.0895 11.0486 36.8991C11.1279 36.7087 11.2442 36.5359 11.3906 36.3906L17.6406 30.1406C17.9349 29.8464 18.3339 29.6811 18.75 29.6811C19.1661 29.6811 19.5652 29.8464 19.8594 30.1406C20.1536 30.4349 20.3189 30.8339 20.3189 31.25C20.3189 31.6661 20.1536 32.0651 19.8594 32.3594Z"/>
</svg>
