<svg width="50" height="50" viewBox="0 0 50 50" fill="currentColor" xmlns="http://www.w3.org/2000/svg">
<path fill-rule="evenodd" clip-rule="evenodd" d="M14.2653 27.3229H20.4194V24.9752C20.4194 24.2031 21.051 23.5715 21.8231 23.5715H28.1769C28.9489 23.5715 29.5807 24.2035 29.5807 24.9752V27.3229H35.7346C36.3106 27.3229 36.7817 27.794 36.7817 28.37V33.6758C36.7817 35.0384 35.6671 36.1532 34.3045 36.1532H15.6957C14.3331 36.1532 13.2183 35.0384 13.2183 33.6758V28.37C13.2182 27.794 13.6894 27.3229 14.2653 27.3229ZM26.498 38.6276H23.5019C23.1986 38.6276 22.9503 38.3794 22.9503 38.076V37.7158H15.6957C14.7636 37.7158 13.9033 37.3972 13.2183 36.8634V42.7278C13.2183 43.709 14.0213 44.5121 15.0025 44.5121H34.9976C35.9791 44.5121 36.7818 43.709 36.7818 42.7278V36.8633C36.0969 37.3973 35.2367 37.7158 34.3044 37.7158H27.0498V38.076C27.0497 38.3793 26.8014 38.6276 26.498 38.6276ZM23.711 5.48828H26.2891V6.78184C27.1274 6.94912 27.9248 7.27957 28.6357 7.75439L29.5508 6.83926L31.3738 8.6623L30.4587 9.57744C30.9335 10.2883 31.2639 11.0856 31.4311 11.9239H32.7246V14.5021H31.4311C31.2639 15.3404 30.9335 16.1377 30.4587 16.8485L31.3738 17.7637L29.5508 19.5867L28.6357 18.6716C27.9247 19.1464 27.1274 19.4769 26.2891 19.6442V20.9377H23.711V19.6442C22.8726 19.477 22.0753 19.1465 21.3644 18.6717L20.4494 19.5867L18.6263 17.7638L19.5412 16.8487C19.0663 16.1379 18.7358 15.3405 18.5687 14.5021H17.2751V11.924H18.5687C18.7359 11.0856 19.0664 10.2883 19.5414 9.57754L18.6263 8.6624L20.4493 6.83936L21.3643 7.75449C22.0752 7.27964 22.8725 6.94918 23.7109 6.78193V5.48828H23.711ZM40.3579 12.3005C42.9882 12.3005 45.1206 14.4327 45.1206 17.0631C45.1206 19.6934 42.9882 21.8257 40.3579 21.8257C37.7276 21.8257 35.5952 19.6934 35.5952 17.0631C35.5952 14.4327 37.7276 12.3005 40.3579 12.3005ZM49.1388 30.8728C48.759 26.3696 44.955 22.8021 40.3579 22.8021C37.7528 22.8021 35.403 23.948 33.7859 25.7604H35.7345C37.1729 25.7604 38.3442 26.9316 38.3442 28.37V31.6141H48.4573C48.5521 31.6144 48.6459 31.5951 48.7327 31.5571C48.8196 31.5192 48.8976 31.4636 48.9617 31.3938C49.0258 31.3241 49.0747 31.2417 49.1052 31.152C49.1357 31.0622 49.1471 30.9671 49.1388 30.8728ZM9.64191 12.3005C12.2722 12.3005 14.4046 14.4327 14.4046 17.0631C14.4046 19.6934 12.2722 21.8257 9.64191 21.8257C7.01163 21.8257 4.87921 19.6934 4.87921 17.0631C4.87931 14.4327 7.01173 12.3005 9.64191 12.3005ZM16.2139 25.7604C14.5968 23.948 12.247 22.8021 9.64191 22.8021C5.04503 22.8021 1.24083 26.3695 0.861244 30.8728C0.852872 30.9672 0.864296 31.0623 0.894783 31.152C0.92527 31.2418 0.97415 31.3242 1.0383 31.3939C1.10244 31.4637 1.18045 31.5193 1.26732 31.5572C1.35419 31.5951 1.44801 31.6145 1.54279 31.6141H11.6558V28.37C11.6558 26.9316 12.8271 25.7604 14.2654 25.7604H16.2139ZM24.9999 9.19619C22.7815 9.19619 20.983 10.9946 20.983 13.2131C20.983 15.4316 22.7815 17.2301 24.9999 17.2301C27.2186 17.2301 29.0168 15.4316 29.0168 13.2131C29.0168 10.9946 27.2186 9.19619 24.9999 9.19619ZM22.33 27.3229H27.6702V25.4819H22.33V27.3229ZM18.5119 30.3249V33.151H31.488V30.3249H18.5119Z"/>
</svg>
