<svg width="52" height="52" viewBox="0 0 52 52" fill="currentColor" xmlns="http://www.w3.org/2000/svg" class="invert">
<path d="M14.2431 44.2892H13.8125C11.774 44.2933 9.79192 43.6201 8.17763 42.3753C6.56334 41.1306 5.40832 39.3848 4.89403 37.4122C4.37974 35.4397 4.53532 33.3522 5.33632 31.4777C6.13733 29.6032 7.53838 28.0479 9.31936 27.0561L6.88186 25.0574C4.79221 26.4998 3.20523 28.5588 2.34259 30.9469C1.47995 33.335 1.38473 35.9329 2.07021 38.3777C2.7557 40.8226 4.18767 42.9923 6.16611 44.5838C8.14455 46.1753 10.5707 47.1091 13.1056 47.2549H13.4631L14.4544 45.9224L14.2431 44.2892Z"/>
<path d="M14.2431 44.2893H13.8125C12.701 44.2869 11.5994 44.0803 10.5625 43.6799C10.197 44.0974 9.97916 44.6235 9.94245 45.1771C9.90574 45.7307 10.0522 46.281 10.3594 46.743C11.2642 47.0256 12.2 47.1975 13.1462 47.2549H13.5037L14.495 45.9224L14.2431 44.2893ZM9.31936 27.0805L6.88186 25.0818C6.39663 25.418 5.93512 25.7872 5.50061 26.1868V26.3818L7.71873 28.218C8.21147 27.7845 8.74789 27.4033 9.31936 27.0805Z"/>
<path d="M26 35.1082C25.9963 33.0061 25.4488 30.9407 24.411 29.1127C23.3731 27.2847 21.8801 25.7562 20.0769 24.6757V20.2151C20.078 19.9256 20.0217 19.6388 19.9115 19.3712C19.8012 19.1036 19.639 18.8604 19.4344 18.6557C19.2297 18.451 18.9865 18.2889 18.7189 18.1786C18.4513 18.0683 18.1645 18.0121 17.875 18.0132H9.10001C8.81124 18.0132 8.52531 18.0702 8.25862 18.181C7.99193 18.2917 7.74974 18.454 7.54592 18.6586C7.34211 18.8632 7.18068 19.106 7.07092 19.3731C6.96115 19.6402 6.9052 19.9263 6.90627 20.2151V25.0901L9.34377 27.0888C10.4722 26.4264 11.7291 26.0126 13.0303 25.8751C14.3316 25.7376 15.6472 25.8796 16.8891 26.2915C18.1311 26.7035 19.2707 27.3759 20.2318 28.2639C21.1929 29.1518 21.9533 30.2347 22.4621 31.4403C22.9709 32.6458 23.2164 33.946 23.1822 35.2541C23.1479 36.5621 22.8347 37.8478 22.2635 39.025C21.6924 40.2022 20.8763 41.2439 19.8701 42.0803C18.8638 42.9168 17.6906 43.5287 16.4288 43.8751C16.0705 43.4633 15.591 43.1756 15.0591 43.0532C14.5273 42.9308 13.9703 42.9799 13.468 43.1936C12.9658 43.4073 12.5442 43.7746 12.2635 44.2427C11.9829 44.7108 11.8577 45.2558 11.906 45.7994C11.9542 46.3431 12.1734 46.8575 12.532 47.2689C12.8906 47.6803 13.3704 47.9676 13.9024 48.0896C14.4344 48.2115 14.9913 48.1618 15.4933 47.9477C15.9954 47.7336 16.4167 47.366 16.6969 46.8976C19.3413 46.2535 21.694 44.7427 23.3801 42.6061C25.0661 40.4694 25.9884 37.8299 26 35.1082Z"/>
<path d="M45.0044 25.61C44.9069 25.7156 44.8175 25.8213 44.7119 25.9269C43.2711 27.3651 41.3942 28.2851 39.3749 28.543C37.3555 28.8009 35.3076 28.3822 33.5516 27.3524C31.7955 26.3225 30.4304 24.7396 29.6697 22.8513C28.909 20.963 28.7957 18.8758 29.3475 16.9163L26.2275 17.2088C25.7734 19.704 26.1089 22.2788 27.1875 24.5742C28.2661 26.8697 30.0339 28.7715 32.2446 30.0146C34.4553 31.2576 36.9988 31.7801 39.5205 31.509C42.0422 31.238 44.4165 30.187 46.3125 28.5025L46.5725 28.2588L46.3369 26.6338L45.0044 25.61Z"/>
<path d="M26.0487 19.175L26.2762 19.4025L29.0225 19.1425C29.0377 18.3898 29.1469 17.6419 29.3475 16.9163L26.2275 17.2088C26.1152 17.8583 26.0554 18.5159 26.0487 19.175ZM46.5887 28.2588L46.3531 26.6338L45.0043 25.6263C44.9068 25.7319 44.8175 25.8375 44.7118 25.9431C43.9047 26.7526 42.9506 27.4006 41.9006 27.8525C41.9383 28.4827 42.204 29.0776 42.6481 29.5263C42.9864 29.8607 43.4113 30.0942 43.875 30.2006C44.7534 29.7422 45.572 29.1773 46.3125 28.5188L46.5887 28.2588Z"/>
<path d="M46.8243 10.7982C45.3344 9.31427 43.4859 8.24109 41.4585 7.68298C39.4311 7.12488 37.2938 7.10083 35.2543 7.61319L32.1018 4.45257C31.6879 4.04224 31.1287 3.81201 30.5459 3.81201C29.9631 3.81201 29.4038 4.04224 28.99 4.45257L22.7906 10.6601C22.5855 10.8639 22.4227 11.1064 22.3116 11.3734C22.2005 11.6404 22.1433 11.9268 22.1433 12.216C22.1433 12.5052 22.2005 12.7916 22.3116 13.0586C22.4227 13.3256 22.5855 13.5681 22.7906 13.7719L26.2275 17.2088L29.3475 16.9163C29.7096 15.6838 30.326 14.5408 31.1568 13.561C31.9876 12.5812 33.0144 11.7863 34.1711 11.2275C35.3278 10.6687 36.5888 10.3584 37.8727 10.3167C39.1567 10.2749 40.4351 10.5025 41.6257 10.9849C42.8163 11.4673 43.8927 12.1938 44.7854 13.1175C45.6782 14.0412 46.3675 15.1417 46.809 16.3481C47.2506 17.5544 47.4345 18.8399 47.349 20.1217C47.2634 21.4034 46.9104 22.6531 46.3125 23.7901C45.768 23.7515 45.2253 23.8863 44.7622 24.1752C44.2991 24.4641 43.9394 24.8923 43.7346 25.3983C43.5299 25.9043 43.4907 26.4621 43.6226 26.9917C43.7545 27.5214 44.0508 27.9957 44.4689 28.3466C44.887 28.6974 45.4055 28.9069 45.95 28.9448C46.4945 28.9828 47.0371 28.8474 47.4999 28.5579C47.9626 28.2685 48.3219 27.8399 48.526 27.3337C48.7301 26.8274 48.7687 26.2696 48.6362 25.7401C50.0507 23.4062 50.6409 20.6652 50.3124 17.956C49.9839 15.2468 48.7556 12.7263 46.8243 10.7982Z"/>
<path d="M14.3081 44.6875C14.0926 44.6875 13.886 44.7731 13.7336 44.9254C13.5812 45.0778 13.4956 45.2845 13.4956 45.5V45.9875C13.4956 46.2029 13.5812 46.4096 13.7336 46.562C13.886 46.7144 14.0926 46.8 14.3081 46.8C14.5236 46.8 14.7303 46.7144 14.8826 46.562C15.035 46.4096 15.1206 46.2029 15.1206 45.9875V45.5C15.1206 45.2845 15.035 45.0778 14.8826 44.9254C14.7303 44.7731 14.5236 44.6875 14.3081 44.6875ZM13.4225 23.1156C13.638 23.1156 13.8446 23.03 13.997 22.8776C14.1494 22.7252 14.235 22.5186 14.235 22.3031V20.4993C14.235 20.2838 14.1494 20.0772 13.997 19.9248C13.8446 19.7724 13.638 19.6868 13.4225 19.6868C13.207 19.6868 13.0003 19.7724 12.848 19.9248C12.6956 20.0772 12.61 20.2838 12.61 20.4993V22.3031C12.61 22.5186 12.6956 22.7252 12.848 22.8776C13.0003 23.03 13.207 23.1156 13.4225 23.1156ZM46.4425 25.7968C46.3667 25.7211 46.2768 25.661 46.1778 25.62C46.0788 25.579 45.9727 25.5579 45.8656 25.5579C45.7585 25.5579 45.6524 25.579 45.5534 25.62C45.4544 25.661 45.3645 25.7211 45.2887 25.7968C45.213 25.8726 45.1529 25.9625 45.1119 26.0615C45.0709 26.1605 45.0498 26.2666 45.0498 26.3737C45.0498 26.4808 45.0709 26.5869 45.1119 26.6859C45.1529 26.7849 45.213 26.8748 45.2887 26.9506L45.6381 27.2918C45.7133 27.3676 45.8027 27.4278 45.9012 27.469C45.9997 27.5102 46.1054 27.5316 46.2121 27.532C46.3189 27.5324 46.4247 27.5117 46.5234 27.4712C46.6222 27.4307 46.712 27.3711 46.7878 27.2959C46.8636 27.2207 46.9238 27.1313 46.965 27.0328C47.0062 26.9343 47.0276 26.8287 47.0279 26.7219C47.0283 26.6151 47.0077 26.5094 46.9672 26.4106C46.9267 26.3118 46.8671 26.222 46.7919 26.1462L46.4425 25.7968ZM28.1694 8.77496C28.0139 8.64185 27.814 8.5723 27.6095 8.5802C27.405 8.58809 27.211 8.67286 27.0663 8.81757C26.9216 8.96227 26.8369 9.15624 26.829 9.36073C26.8211 9.56522 26.8906 9.76515 27.0237 9.92059L28.2912 11.1962C28.3668 11.2724 28.4566 11.3328 28.5556 11.3741C28.6547 11.4153 28.7609 11.4365 28.8681 11.4365C28.9754 11.4365 29.0816 11.4153 29.1806 11.3741C29.2796 11.3328 29.3695 11.2724 29.445 11.1962C29.5963 11.044 29.6813 10.838 29.6813 10.6234C29.6813 10.4087 29.5963 10.2028 29.445 10.0506L28.1694 8.77496Z"/>
<path d="M47.3769 10.2212C45.849 8.68878 43.9604 7.56496 41.8848 6.95305C39.8091 6.34114 37.613 6.26078 35.4981 6.71936L32.6625 3.88373C32.3825 3.60342 32.0501 3.38105 31.6841 3.22933C31.3181 3.07761 30.9259 2.99951 30.5297 2.99951C30.1335 2.99951 29.7412 3.07761 29.3753 3.22933C29.0093 3.38105 28.6768 3.60342 28.3969 3.88373L25.7563 6.49998L22.9125 6.7356L22.4738 5.68748C22.3627 5.40137 22.1955 5.14038 21.982 4.9199C21.7685 4.69942 21.513 4.52392 21.2306 4.40373C20.9462 4.28506 20.641 4.22396 20.3328 4.22396C20.0246 4.22396 19.7195 4.28506 19.435 4.40373L15.9331 5.72811C15.3858 5.95774 14.9462 6.38678 14.7033 6.92835C14.4605 7.46991 14.4325 8.08354 14.625 8.64498L12.5288 10.7494C12.3099 10.9655 12.1361 11.223 12.0175 11.5068C11.8989 11.7906 11.8378 12.0952 11.8378 12.4028C11.8378 12.7104 11.8989 13.015 12.0175 13.2988C12.1361 13.5826 12.3099 13.8401 12.5288 14.0562L13.3413 14.8687L12.1144 17.1681H9.08375C8.28495 17.1702 7.51947 17.4885 6.95463 18.0534C6.38979 18.6182 6.07152 19.3837 6.06938 20.1825V24.6431C3.46156 26.5586 1.66693 29.3825 1.04 32.5569C1.01874 32.662 1.0185 32.7703 1.0393 32.8755C1.06011 32.9807 1.10154 33.0808 1.16121 33.1699C1.22089 33.2591 1.29762 33.3355 1.38698 33.3948C1.47634 33.4542 1.57657 33.4952 1.68187 33.5156H1.83625C2.02748 33.5191 2.21381 33.455 2.36243 33.3346C2.51105 33.2142 2.61244 33.0453 2.64875 32.8575C3.18614 30.1536 4.69122 27.7385 6.88188 26.065L7.95438 26.9506C6.42026 28.0556 5.23106 29.5731 4.52486 31.3269C3.81866 33.0807 3.62444 34.9988 3.96474 36.8586C4.30505 38.7184 5.16592 40.4435 6.44739 41.8335C7.72887 43.2236 9.37838 44.2217 11.2044 44.7119C11.1285 44.9762 11.0875 45.2494 11.0825 45.5244C11.089 45.7042 11.108 45.8834 11.1394 46.0606C8.75439 45.4764 6.62065 44.1404 5.05359 42.25C3.48652 40.3595 2.5693 38.015 2.4375 35.5631C2.4375 35.3476 2.3519 35.141 2.19952 34.9886C2.04715 34.8362 1.84049 34.7506 1.625 34.7506C1.40951 34.7506 1.20285 34.8362 1.05048 34.9886C0.898102 35.141 0.8125 35.3476 0.8125 35.5631C0.944857 38.6096 2.13805 41.514 4.1856 43.7738C6.23315 46.0335 9.00623 47.5063 12.025 47.9375C12.3653 48.2919 12.7787 48.5679 13.2366 48.7462C13.6944 48.9245 14.1857 49.0008 14.676 48.9699C15.1664 48.939 15.6441 48.8015 16.0759 48.5671C16.5077 48.3326 16.8832 48.0069 17.1763 47.6125C19.5915 46.9528 21.7648 45.6098 23.4351 43.7448C25.1055 41.8798 26.2017 39.5721 26.5921 37.0991C26.9826 34.626 26.6506 32.0929 25.6361 29.804C24.6215 27.5151 22.9676 25.5678 20.8731 24.1962V20.215C20.8731 19.4183 20.5578 18.6541 19.996 18.0892C19.4342 17.5244 18.6716 17.2049 17.875 17.2006H13.9425L14.625 15.8762C14.8695 15.9666 15.128 16.0134 15.3888 16.0144C15.9988 16.0082 16.5822 15.7632 17.0138 15.3319L19.6788 12.6669C20.1138 12.2372 20.3619 11.6533 20.3694 11.0419C20.3694 11.0419 20.3694 10.985 20.3694 10.9525L21.7831 10.3919C21.8711 10.3567 21.9554 10.3132 22.035 10.2619C21.523 10.8331 21.2502 11.5792 21.2729 12.3459C21.2956 13.1126 21.612 13.8413 22.1569 14.3812L25.3013 17.5256C24.9305 20.0783 25.3275 22.6836 26.4418 25.01C27.5561 27.3364 29.3372 29.2787 31.5587 30.5898C33.7801 31.9009 36.3414 32.5215 38.9166 32.3726C41.4918 32.2237 43.9645 31.3121 46.02 29.7537H46.0769C46.5639 29.7553 47.0456 29.6518 47.489 29.4504C47.9325 29.249 48.3273 28.9543 48.6465 28.5864C48.9658 28.2186 49.202 27.7863 49.339 27.3189C49.4761 26.8515 49.5107 26.3601 49.4406 25.8781C50.863 23.4037 51.4316 20.53 51.0586 17.7004C50.6857 14.8708 49.3919 12.2425 47.3769 10.2212ZM5.40313 35.1081C5.40643 33.6175 5.80626 32.1546 6.56158 30.8696C7.31691 29.5845 8.40052 28.5236 9.70125 27.7956C10.9773 27.0796 12.4184 26.71 13.8815 26.7235C15.3446 26.7369 16.7787 27.133 18.0413 27.8723C19.304 28.6117 20.3511 29.6685 21.0788 30.9379C21.8065 32.2073 22.1894 33.6449 22.1894 35.1081C22.1787 36.8322 21.6393 38.5116 20.644 39.9194C19.6488 41.3273 18.2455 42.396 16.6238 42.9812C15.9604 42.4245 15.1079 42.1451 14.2438 42.2011C13.3796 42.257 12.5703 42.6442 11.9844 43.2819C10.1176 42.8783 8.44581 41.8466 7.24804 40.359C6.05027 38.8714 5.39906 37.018 5.40313 35.1081ZM19.2156 20.215V24.6756C19.2162 24.8145 19.2524 24.9508 19.3206 25.0717C19.3889 25.1926 19.487 25.294 19.6056 25.3662C21.5299 26.5298 23.0661 28.2375 24.0202 30.2738C24.9743 32.31 25.3035 34.5834 24.9661 36.8066C24.6288 39.0299 23.64 41.1032 22.1248 42.7648C20.6096 44.4263 18.6359 45.6015 16.4531 46.1419C16.3492 46.1667 16.2513 46.2118 16.1649 46.2745C16.0784 46.3372 16.0052 46.4164 15.9494 46.5075C15.8053 46.7542 15.6031 46.9621 15.3604 47.113C15.1177 47.2638 14.8419 47.3532 14.5568 47.3732C14.2717 47.3932 13.9861 47.3433 13.7247 47.2278C13.4633 47.1124 13.2341 46.9348 13.0569 46.7106C12.8082 46.4019 12.6708 46.0183 12.6669 45.6219C12.669 45.1506 12.8572 44.6992 13.1904 44.366C13.5236 44.0328 13.975 43.8446 14.4463 43.8425C14.7005 43.8435 14.9515 43.9 15.1816 44.0081C15.4118 44.1161 15.6156 44.2731 15.7788 44.4681C15.8786 44.5796 16.0073 44.6614 16.1507 44.7044C16.294 44.7474 16.4465 44.75 16.5913 44.7119C17.9119 44.3133 19.1359 43.6459 20.1861 42.7515C21.2364 41.8571 22.0903 40.7552 22.6942 39.5149C23.2981 38.2746 23.6389 36.9228 23.6952 35.5445C23.7514 34.1661 23.522 32.791 23.0212 31.5057C22.5204 30.2203 21.7591 29.0524 20.7852 28.0754C19.8114 27.0984 18.6459 26.3334 17.3621 25.8285C16.0783 25.3237 14.704 25.0898 13.3255 25.1417C11.947 25.1936 10.5941 25.5301 9.35188 26.13L7.64563 24.7162V20.215C7.64776 19.8472 7.79482 19.495 8.05492 19.2349C8.31502 18.9748 8.66717 18.8277 9.035 18.8256H17.875C18.24 18.832 18.588 18.9809 18.8446 19.2405C19.1012 19.5002 19.2461 19.8499 19.2481 20.215H19.2156ZM23.9444 8.30373L23.0019 9.24623C23.1413 8.9697 23.2268 8.66913 23.2538 8.3606L23.9444 8.30373ZM17.6881 10.2375C17.5125 10.3069 17.3164 10.304 17.1429 10.2295C16.9693 10.1549 16.8324 10.0146 16.7619 9.83935L16.4694 9.09998C16.5624 9.05206 16.6654 9.02699 16.77 9.02685C16.8641 9.02498 16.9575 9.04281 17.0442 9.07919C17.131 9.11557 17.2092 9.1697 17.2738 9.2381L18.0863 10.0506L17.6881 10.2375ZM15.8844 14.1781C15.7589 14.3023 15.5897 14.3723 15.4131 14.3731L15.7381 13.7637C15.7935 13.5847 15.7853 13.3919 15.7149 13.2182C15.6444 13.0445 15.5161 12.9005 15.3516 12.8106C15.1871 12.7207 14.9966 12.6904 14.8123 12.7249C14.6281 12.7595 14.4614 12.8566 14.3406 13L14.1294 13.3981L13.6338 12.9106C13.5669 12.8448 13.5138 12.7664 13.4775 12.68C13.4412 12.5935 13.4225 12.5006 13.4225 12.4069C13.4248 12.2155 13.5004 12.0323 13.6338 11.895L15.2588 10.27L15.3075 10.4C15.4803 10.8364 15.7803 11.2108 16.1686 11.4745C16.5569 11.7383 17.0156 11.8791 17.485 11.8787C17.7798 11.8801 18.0722 11.8249 18.3463 11.7162H18.3869L15.8844 14.1781ZM21.19 8.8481L19.7519 9.42498C19.7519 9.42498 19.7519 9.37623 19.695 9.35998L18.46 8.12498C18.1786 7.83599 17.8271 7.62493 17.4397 7.51242C17.0523 7.39992 16.6424 7.38982 16.25 7.4831C16.3246 7.37455 16.429 7.28989 16.5506 7.23935L20.0363 5.84998C20.1244 5.81625 20.2182 5.7997 20.3125 5.80123C20.4103 5.7996 20.5073 5.81899 20.5969 5.8581C20.684 5.89548 20.7627 5.94998 20.8283 6.01838C20.8939 6.08677 20.945 6.16766 20.9788 6.25623L21.2388 6.8981H20.7838C20.5683 6.90672 20.365 7.00059 20.2187 7.15906C20.0725 7.31753 19.9951 7.52762 20.0038 7.7431C20.0124 7.95859 20.1062 8.16183 20.2647 8.30811C20.4232 8.45439 20.6333 8.53172 20.8488 8.5231H20.9138L21.6125 8.46623C21.5773 8.55329 21.5244 8.63214 21.4573 8.69785C21.3902 8.76356 21.3103 8.81471 21.2225 8.8481H21.19ZM30.1275 27.4625C28.8941 26.2325 27.9596 24.7358 27.3961 23.0876C26.8327 21.4394 26.6552 19.6838 26.8775 17.9562L28.2588 17.8344C27.9381 19.7093 28.1605 21.6369 28.8998 23.3896C29.6391 25.1423 30.8644 26.6469 32.431 27.7258C33.9977 28.8046 35.8403 29.4128 37.7414 29.4784C39.6425 29.5441 41.5227 29.0645 43.16 28.0962C43.3062 28.3385 43.4778 28.5646 43.6719 28.7706C43.8002 28.8933 43.9389 29.0047 44.0863 29.1037C41.9086 30.4079 39.3603 30.9542 36.8394 30.6573C34.3185 30.3604 31.9669 29.2369 30.1519 27.4625H30.1275ZM47.8644 25.3175C47.8082 25.4089 47.7706 25.5105 47.7539 25.6165C47.7371 25.7225 47.7416 25.8307 47.7669 25.935C47.8388 26.2111 47.8423 26.5006 47.7771 26.7784C47.7119 27.0562 47.58 27.3139 47.3927 27.5292C47.2054 27.7445 46.9684 27.9109 46.7024 28.0139C46.4363 28.117 46.1491 28.1536 45.8656 28.1206C45.4711 28.0758 45.1025 27.9015 44.8175 27.625C44.5714 27.3788 44.4045 27.0648 44.3381 26.7231C44.2744 26.4338 44.2849 26.1331 44.3687 25.8489C44.4526 25.5648 44.6069 25.3065 44.8175 25.0981C44.9992 24.9191 45.2173 24.7813 45.4571 24.6944C45.6969 24.6075 45.9527 24.5733 46.2069 24.5944C46.3691 24.6138 46.5334 24.5838 46.6783 24.5085C46.8233 24.4331 46.9421 24.3158 47.0194 24.1719C48.034 22.3025 48.4236 20.1575 48.1312 18.0507C47.8388 15.944 46.8797 13.9861 45.3944 12.4637C45.2419 12.3266 45.0432 12.2522 44.8382 12.2555C44.6332 12.2587 44.4369 12.3394 44.2889 12.4812C44.1408 12.6231 44.0519 12.8157 44.04 13.0204C44.028 13.2252 44.0939 13.4268 44.2244 13.585C45.4051 14.8086 46.1847 16.3632 46.4591 18.0414C46.7334 19.7196 46.4896 21.4415 45.76 22.9775C44.8974 23.054 44.0972 23.4595 43.5254 24.1099C42.9537 24.7604 42.6541 25.6059 42.6888 26.4712C41.2569 27.3889 39.5795 27.849 37.8798 27.7903C36.1801 27.7317 34.5385 27.157 33.1733 26.1428C31.808 25.1286 30.7839 23.7228 30.2369 22.1125C29.69 20.5021 29.6461 18.7634 30.1113 17.1275C30.4502 15.9197 31.0561 14.8034 31.8841 13.861C32.7122 12.9187 33.7414 12.1744 34.8957 11.6831C36.0499 11.1917 37.2998 10.9659 38.553 11.0223C39.8062 11.0786 41.0308 11.4158 42.1363 12.0087C42.2307 12.0621 42.3347 12.0963 42.4424 12.1095C42.55 12.1226 42.6592 12.1144 42.7637 12.0854C42.8682 12.0563 42.9659 12.007 43.0514 11.9402C43.1368 11.8733 43.2082 11.7903 43.2616 11.6959C43.3149 11.6015 43.3491 11.4975 43.3623 11.3898C43.3755 11.2822 43.3673 11.173 43.3382 11.0685C43.3092 10.964 43.2598 10.8662 43.193 10.7808C43.1262 10.6954 43.0432 10.624 42.9488 10.5706C41.6695 9.88733 40.2571 9.48997 38.8092 9.40598C37.3613 9.32199 35.9124 9.55337 34.5627 10.0841C33.213 10.6149 31.9947 11.4324 30.9918 12.4801C29.989 13.5279 29.2256 14.7808 28.7544 16.1525L26.5525 16.3556L23.3838 13.1869C23.2548 13.0585 23.1524 12.9059 23.0826 12.7379C23.0128 12.5699 22.9768 12.3897 22.9768 12.2078C22.9768 12.0258 23.0128 11.8457 23.0826 11.6777C23.1524 11.5096 23.2548 11.3571 23.3838 11.2287L29.5913 5.02123C29.8515 4.76273 30.2035 4.61765 30.5703 4.61765C30.9371 4.61765 31.2891 4.76273 31.5494 5.02123L34.7019 8.17373C34.8052 8.27958 34.9355 8.35519 35.0787 8.39242C35.2219 8.42965 35.3725 8.42708 35.5144 8.38498C37.6934 7.86753 39.9766 8.00483 42.0779 8.77966C44.1792 9.55448 46.005 10.9324 47.3264 12.7405C48.6479 14.5487 49.4061 16.7068 49.5062 18.9441C49.6062 21.1815 49.0435 23.3986 47.8888 25.3175H47.8644Z"/>
</svg>
