<svg width="50" height="42" viewBox="0 0 50 42" fill="currentColor" xmlns="http://www.w3.org/2000/svg">
<path d="M31.25 9.5415C30.6975 9.5415 30.1676 9.32201 29.7769 8.93131C29.3862 8.54061 29.1667 8.01071 29.1667 7.45817V4.33317H20.8333V7.45817C20.8333 8.01071 20.6138 8.54061 20.2231 8.93131C19.8324 9.32201 19.3025 9.5415 18.75 9.5415C18.1975 9.5415 17.6676 9.32201 17.2769 8.93131C16.8862 8.54061 16.6667 8.01071 16.6667 7.45817V4.33317C16.6667 2.03525 18.5354 0.166504 20.8333 0.166504H29.1667C31.4646 0.166504 33.3333 2.03525 33.3333 4.33317V7.45817C33.3333 8.01071 33.1138 8.54061 32.7231 8.93131C32.3324 9.32201 31.8025 9.5415 31.25 9.5415ZM26.4792 28.0415C25.4777 28.3857 24.3877 28.371 23.3958 27.9998L0 20.2082V36.104C0 39.2707 2.5625 41.8332 5.72917 41.8332H44.2708C47.4375 41.8332 50 39.2707 50 36.104V20.2082L26.4792 28.0415Z"/>
<path d="M50 12.1457V16.9165L25.5 25.0832C25.3333 25.1457 25.1667 25.1665 25 25.1665C24.8333 25.1665 24.6667 25.1457 24.5 25.0832L0 16.9165V12.1457C0 8.979 2.5625 6.4165 5.72917 6.4165H44.2708C47.4375 6.4165 50 8.979 50 12.1457Z"/>
</svg>
